<svg width="254" height="275" fill="none" xmlns="http://www.w3.org/2000/svg"><path d="M71.182 270.398c3.882.319 7.862.661 11.69 1.333.198 4.155-6.103 2.631-8.815 2.631H41.233c-3.282 0-6.57 0-9.828-.133-5.19-.255-10.475 0-15.66 0H3.638c-.536 0-3.334-.348-3.637 0 1.333-1.519 1.944-2.898 2.636-2.898 14.21-.869 21.227-10.866 26.383-21.918 8.728-18.753 16.293-38.058 24.707-56.991.471-1.049 6.703-2.127 6.982-2.046-5.981 18.053-13.302 35.23-13.674 54.123-.332 15.288 8.71 24.624 24.148 25.899zm180.723 1.043a9.761 9.761 0 00-2.822-.875c-7.518-.498-12.802-4.572-16.438-10.669-3.637-6.097-7.431-12.275-10.073-18.846-18.038-44.891-59.411-148.94-61.098-153.292-10.998-27.853-22.304-55.59-33.575-83.326-.663-1.628-2.042-2.961-3.084-4.433-1.036 1.426-2.438 2.718-3.043 4.306-3.806 9.91-7.565 19.843-10.998 29.886a10.913 10.913 0 00.279 6.885 39061.077 39061.077 0 0051.061 131.844c1.397 3.599 2.729 7.221 4.323 11.44h-.506c.03.363.005.728-.075 1.084a3.353 3.353 0 01-.786 2.236l.466.093c2.077.516 3.351 1.832 4.346 4.636 5.61 15.717 11.714 31.266 17.527 46.914a25.158 25.158 0 01.5 15.937 26.381 26.381 0 01-3.491 7.313c-1.519 2.208-4.12 3.663-6.535 4.724-.884.388-11.003 3.477-15.292 4.01l-1.297 2.898s81.918-.209 92.689-.209c-.094-1.704-.064-1.756-2.078-2.556zM98.287 68.837L54.75 189.756s5.778 1.067 5.923.609c3.143-9.904 38.48-121.29 37.614-121.528zm68.156 115.524l-73.73 1.82 74.906 2.109-1.176-3.929z" fill="#f8f8f8"/><path d="M60.273 191.593l2.35-7.377-5.318-1.547-4.056 10.825 7.023-1.901z" fill="#f8f8f8"/></svg>