<svg width="358" height="472" viewBox="0 0 358 472" fill="none" xmlns="http://www.w3.org/2000/svg">
<rect width="358" height="472" fill="white"/>
<path d="M289 267.54H258.939C257.59 267.54 255.855 267.248 254.532 267.54C253.54 267.762 253.616 267.691 253.838 268.654C254.039 269.53 254.743 270.493 255.128 271.31C255.985 273.122 256.787 274.951 257.541 276.812C260.306 283.671 262.322 290.876 262.832 298.298C263.878 313.444 257.687 327.174 247.083 337.787C235.878 349.006 221.062 353.134 205.714 355L204.863 353.599C205.801 352.782 206.614 351.484 207.688 351.224C238.496 343.71 248.265 311.643 234.371 285.099C227.963 272.857 217.728 264.927 206.441 257.635C199.574 253.203 192.752 248.72 185.976 244.187C178.072 238.918 170.196 233.624 162.35 228.305C155.232 223.518 147.621 219.049 141.077 213.494C139.635 212.271 137.971 211.13 136.773 209.707C136.453 209.323 136.128 208.939 135.792 208.593C134.36 207.127 133 205.591 131.596 204.098L122.602 194.501C117.392 210.405 110.854 225.481 110.529 242.104C110.263 255.309 118.059 263.369 131.362 264.467C134.702 264.743 138.134 265.041 141.435 265.619C141.603 269.211 136.177 267.891 133.845 267.891H105.531C102.706 267.891 99.8708 267.891 97.0626 267.778C92.5901 267.556 88.0472 267.778 83.5692 267.778H73.1389C72.6781 267.778 70.2656 267.48 70 267.778C71.1493 266.469 71.6751 265.306 72.2715 265.273C84.518 264.516 90.5626 255.888 95.008 246.34C102.549 230.144 109.065 213.483 116.297 197.141C118.65 191.829 118.731 187.366 116.384 181.751C107.401 160.27 116.161 132.4 145.116 120.013C151.784 117.157 158.967 115.512 165.917 113.31L167.121 115.29C166.009 116.313 165.066 117.719 163.754 118.298C154.847 122.225 147.404 127.857 142.221 136.192C140.9 138.417 139.728 140.726 138.714 143.106C132.273 157.636 137.282 173.588 147.388 185.018C148.23 185.967 149.097 186.888 149.99 187.783C151.074 188.864 152.7 190.076 154.121 190.087C173.572 190.233 193.023 190.184 213.434 190.184C212.062 186.544 210.913 183.417 209.71 180.312C195.018 142.366 180.347 104.419 165.695 66.4699C164.975 64.5639 164.891 62.4768 165.456 60.5195C168.411 51.8643 171.653 43.2741 174.927 34.7217C175.469 33.3477 176.657 32.2334 177.551 31C178.451 32.2712 179.638 33.4234 180.207 34.8299C189.922 58.7776 199.659 82.7199 209.113 106.776C210.593 110.535 212.729 112.137 216.519 112.542C219.495 112.867 222.417 113.689 225.355 114.338C233.4 116.123 241.418 118.038 249.49 119.699C261.027 122.074 266.556 130.794 271.332 140.201C272.747 142.987 269.776 147.233 266.453 147.368C258.186 147.753 249.978 146.633 242.952 142.267C239.645 140.217 236.664 136.317 235.411 132.59C233.368 126.558 229.361 123.107 224.152 120.473C220.942 118.85 217.592 117.557 213.147 115.604C214.204 118.666 214.816 120.705 215.597 122.674C230.944 161.514 246.243 200.354 261.786 239.108C264.063 244.782 267.304 250.105 270.46 255.379C273.615 260.653 278.147 264.153 284.625 264.575C285.469 264.697 286.289 264.951 287.054 265.327C289 266.101 288.734 266.085 288.881 268.081L289 267.54ZM233.368 245.042C232.652 242.126 232.283 239.784 231.503 237.609C226.494 224.086 221.235 210.675 216.399 197.103C215.201 193.744 213.542 192.857 210.187 192.884C193.75 193.014 177.302 192.884 160.854 192.911C159.51 192.976 158.171 193.112 156.842 193.316L156.663 194.442L233.368 245.042Z" fill="#D59530"/>
<path d="M90.2051 379.38C89.8481 378.559 89.5776 378.144 89.3991 378.144C89.2206 378.144 88.8581 378.716 88.4199 379.866L82.6696 393.006L77.7036 404.077C77.5699 404.365 77.4945 404.677 77.4819 404.995C77.4832 405.13 77.5116 405.264 77.5655 405.388C77.6194 405.513 77.6976 405.625 77.7956 405.718C78.2279 406.043 78.7297 406.263 79.2616 406.361C79.792 406.46 80.2911 406.684 80.7168 407.015C80.9055 407.213 81.0119 407.475 81.0143 407.749C81.0143 408.581 80.4733 408.997 79.3914 408.997C78.7729 408.955 78.1571 408.879 77.5468 408.77C76.7403 408.634 75.9248 408.558 75.1071 408.543C74.4188 408.544 73.7323 408.611 73.0568 408.743C72.5514 408.853 72.0374 408.92 71.5205 408.943C71.1298 408.956 70.7468 408.832 70.4386 408.591C70.3096 408.494 70.2041 408.368 70.1302 408.224C70.0562 408.08 70.0156 407.922 70.0113 407.76C69.9885 407.598 70.0003 407.432 70.046 407.275C70.0917 407.118 70.1702 406.972 70.2763 406.847C70.5755 406.661 70.9151 406.55 71.2663 406.523C72.662 406.293 73.623 405.769 74.1496 404.952C74.6761 404.134 76.0357 401.241 78.2284 396.273L84.7198 381.751C86.321 378.27 87.3507 375.96 87.8087 374.822C88.1915 373.985 88.424 373.088 88.4957 372.171C88.46 371.774 88.3783 371.382 88.2522 371.004C88.1249 370.606 88.045 370.195 88.0142 369.778C88.0142 369.238 88.2955 369 88.8473 369C89.2828 368.992 89.7134 369.094 90.0992 369.296C90.4849 369.498 90.8135 369.794 91.0544 370.156C91.932 371.537 92.6799 372.996 93.2885 374.514L100.754 391.353C103.462 397.474 105.177 401.267 105.898 402.732C106.337 403.755 106.934 404.703 107.667 405.54C108.143 405.968 108.709 406.286 109.322 406.469C109.79 406.586 110.235 406.782 110.637 407.047C110.766 407.168 110.865 407.317 110.927 407.483C110.989 407.649 111.012 407.827 110.994 408.003C110.994 408.629 110.426 408.943 109.29 408.943C108.599 408.92 107.909 408.862 107.224 408.77C106.234 408.653 105.239 408.595 104.243 408.597C103.21 408.599 102.178 408.665 101.154 408.797C100.424 408.902 99.6892 408.969 98.9523 408.997C98.4464 409.021 97.9428 408.913 97.4917 408.683C97.3304 408.606 97.194 408.485 97.0984 408.334C97.0027 408.183 96.9515 408.009 96.9508 407.83C96.9462 407.687 96.9728 407.545 97.0289 407.414C97.0849 407.282 97.1691 407.164 97.2754 407.069C97.4917 406.869 98.076 406.723 99.0226 406.631C99.9693 406.539 100.586 406.339 100.867 406.026C101.151 405.705 101.3 405.288 101.284 404.86C101.284 404.363 100.774 402.982 99.7529 400.718C98.7323 398.453 98.094 397.25 97.838 397.11C97.3859 396.933 96.8997 396.859 96.4152 396.894H84.3844C83.9234 396.895 83.4762 396.736 83.1186 396.446C82.9531 396.325 82.8181 396.168 82.7242 395.986C82.6303 395.804 82.5802 395.603 82.5776 395.398C82.5822 395.237 82.6247 395.079 82.7018 394.937C82.7789 394.796 82.8883 394.674 83.0212 394.583C83.306 394.353 83.6615 394.229 84.0274 394.232H95.593C96.2367 394.232 96.5613 394.113 96.5613 393.881C96.487 393.515 96.3594 393.162 96.1826 392.833L90.2051 379.38Z" fill="black"/>
<path d="M117.151 376.713C117.177 377.68 117.499 378.618 118.076 379.402C118.692 380.307 120.268 381.653 122.805 383.438C127.703 386.847 130.96 389.596 132.578 391.687C134.121 393.588 134.974 395.943 135 398.376C135 401.731 133.681 404.34 131.043 406.204C128.538 408.023 125.507 409.002 122.395 409C120.043 408.974 117.717 408.51 115.541 407.631C113.2 406.726 112.027 405.762 112.027 404.756C112.027 404.511 112.054 404.042 112.108 403.366C112.162 402.69 112.189 401.832 112.189 400.804C112.183 400.373 112.152 399.943 112.097 399.516C112.032 399.015 112 398.68 112 398.525C112 397.87 112.389 397.54 113.173 397.54C114.043 397.54 114.535 398.195 114.638 399.505C114.737 401.412 115.566 403.212 116.957 404.543C118.283 405.746 120.123 406.348 122.476 406.348C124.616 406.425 126.71 405.721 128.357 404.372C129.114 403.743 129.717 402.952 130.121 402.061C130.524 401.169 130.718 400.199 130.686 399.223C130.609 397.742 130.058 396.324 129.114 395.17C128.068 393.75 125.326 391.481 120.886 388.364C119.052 387.093 117.611 386.011 116.562 385.116C115.507 384.215 114.615 383.143 113.924 381.947C113.197 380.678 112.824 379.241 112.843 377.783C112.843 375.255 114.005 373.159 116.33 371.494C118.659 369.832 121.471 368.958 124.346 369.002C126.259 369.045 128.142 369.473 129.881 370.258C131.849 371.1 132.827 372.085 132.827 373.219C132.827 373.379 132.827 373.629 132.8 373.975C132.773 374.322 132.8 374.827 132.8 375.498C132.817 375.844 132.854 376.189 132.908 376.532C132.908 377.698 132.503 378.284 131.686 378.284C131.355 378.245 131.047 378.095 130.814 377.86C130.581 377.624 130.436 377.317 130.405 376.99C130.448 376.235 130.308 375.481 129.998 374.79C129.688 374.098 129.216 373.489 128.622 373.012C127.374 372.07 125.836 371.581 124.265 371.627C122.457 371.584 120.688 372.147 119.249 373.225C117.854 374.279 117.155 375.442 117.151 376.713Z" fill="black"/>
<path d="M158.947 370C159.557 370 160.052 370.631 160.431 371.893C160.791 373.03 160.982 374.213 161 375.405C161 376.474 160.643 377.009 159.917 377.009C159.663 377.011 159.417 376.928 159.218 376.774C158.819 376.274 158.525 375.702 158.351 375.09C158.091 374.252 157.508 373.549 156.726 373.133C155.985 372.779 155.172 372.596 154.348 372.598C153.13 372.598 152.247 372.882 151.7 373.438C151.153 373.994 150.882 374.902 150.882 376.159V404.376C150.877 404.785 151.014 405.183 151.272 405.504C151.719 405.935 152.284 406.231 152.897 406.354C153.436 406.465 153.949 406.678 154.408 406.979C154.493 407.06 154.56 407.156 154.607 407.262C154.653 407.369 154.678 407.483 154.679 407.599C154.679 408.535 154.186 409 153.2 409C152.405 408.975 151.612 408.897 150.828 408.765C150.063 408.631 149.291 408.551 148.515 408.524C147.835 408.558 147.158 408.639 146.489 408.765C145.812 408.878 145.128 408.944 144.442 408.963C143.94 408.977 143.445 408.847 143.017 408.588C142.83 408.479 142.676 408.322 142.572 408.134C142.468 407.946 142.418 407.733 142.427 407.519C142.425 407.307 142.502 407.102 142.643 406.942C143.068 406.638 143.554 406.429 144.068 406.327C144.735 406.182 145.318 405.784 145.693 405.22C145.974 404.707 146.118 404.131 146.11 403.547V375.084C146.11 373.363 144.935 372.507 142.589 372.507C141.062 372.507 139.978 372.846 139.339 373.523C138.885 374.033 138.586 374.66 138.478 375.33C138.426 375.851 138.239 376.349 137.936 376.779C137.737 376.932 137.49 377.011 137.238 377.003C136.944 377.003 136.656 376.925 136.403 376.779C136.291 376.728 136.195 376.648 136.125 376.547C136.055 376.447 136.015 376.329 136.008 376.207C135.959 374.677 136.133 373.149 136.523 371.668C136.864 370.599 137.357 370.027 138.001 370.027L158.947 370Z" fill="black"/>
<path d="M181.549 369.005C187.904 369.005 192.898 371.175 196.529 375.515C200.065 379.557 202.008 384.731 201.999 390.083C202.038 393.921 201.017 397.696 199.045 400.999C197.305 404.091 194.599 406.538 191.334 407.971C188.146 409.327 184.711 410.017 181.242 410C175.452 410 170.63 407.999 166.776 403.999C162.922 399.999 160.996 394.919 161 388.759C161.033 385.408 161.913 382.119 163.56 379.194C165.206 376.082 167.7 373.492 170.757 371.717C174.042 369.864 177.771 368.926 181.549 369.005V369.005ZM181.385 407.406C184.805 407.406 187.656 406.658 189.939 405.16C192.087 403.83 193.798 401.907 194.861 399.626C195.842 397.434 196.333 394.515 196.333 390.869C196.333 384.568 195.005 379.756 192.351 376.432C189.696 373.108 186.103 371.442 181.571 371.435C176.892 371.435 173.235 373.144 170.599 376.562C167.933 380.059 166.537 384.348 166.639 388.732C166.624 401.178 171.54 407.403 181.385 407.406V407.406Z" fill="black"/>
<path d="M206.913 374.014C206.913 372.655 205.946 371.921 204.011 371.814C202.67 371.738 202 371.324 202 370.566C202 369.807 202.766 369.371 204.299 369.371C205.106 369.378 205.912 369.441 206.71 369.56C207.456 369.674 208.209 369.737 208.964 369.748C209.377 369.748 210.517 369.622 212.384 369.371C213.813 369.16 215.254 369.036 216.7 369C220.554 369 223.681 369.947 226.081 371.841C227.237 372.722 228.164 373.847 228.789 375.128C229.413 376.408 229.719 377.81 229.681 379.222C229.749 380.976 229.112 382.689 227.901 384.01C226.71 385.273 224.667 386.44 221.771 387.512C221.207 387.712 220.954 387.916 220.954 388.131C221.003 388.386 221.119 388.625 221.292 388.825C222.325 390.224 224.265 393.24 227.112 397.874C229.959 402.508 231.475 404.935 231.659 405.153C232.094 405.489 232.602 405.727 233.146 405.853C233.717 405.984 234.244 406.25 234.679 406.627C234.888 406.87 235.002 407.174 235 407.488C235 407.897 234.724 408.247 234.16 408.564C233.753 408.807 233.292 408.956 232.814 409C231.7 408.929 230.62 408.604 229.664 408.053C228.76 407.65 227.934 407.104 227.219 406.439C226.487 405.546 224.098 401.906 220.052 395.518C218.174 392.537 217.089 390.861 216.796 390.488C215.781 389.092 214.788 388.196 213.815 387.798C213.631 387.746 213.466 387.647 213.336 387.512C213.241 387.314 213.202 387.095 213.223 386.878C213.223 386.098 213.708 385.71 214.683 385.71C214.773 385.71 215.032 385.742 215.466 385.802C215.881 385.865 216.302 385.898 216.722 385.898C217.671 385.925 218.615 385.769 219.5 385.441C220.384 385.113 221.191 384.619 221.872 383.989C223.254 382.719 223.946 380.947 223.946 378.673C223.946 377.063 223.17 375.461 221.619 373.869C220.067 372.276 217.915 371.48 215.162 371.48C214.394 371.439 213.626 371.553 212.908 371.814C212.708 371.889 212.526 372.001 212.372 372.145C212.218 372.288 212.096 372.459 212.012 372.648C211.874 373.069 211.811 373.509 211.826 373.95V404.007C211.823 404.292 211.896 404.573 212.036 404.824C212.177 405.075 212.382 405.288 212.632 405.444C213.256 405.83 213.991 406.018 214.733 405.982C215.386 405.923 216.043 406.042 216.627 406.326C216.785 406.446 216.912 406.6 216.995 406.776C217.079 406.952 217.116 407.145 217.106 407.338C217.108 407.551 217.054 407.761 216.948 407.949C216.843 408.137 216.69 408.297 216.503 408.414C215.962 408.733 215.329 408.882 214.694 408.839C213.771 408.797 212.863 408.593 212.018 408.236C211.227 407.893 210.377 407.689 209.511 407.633C208.7 407.701 207.906 407.895 207.161 408.209C206.38 408.536 205.545 408.731 204.693 408.785C202.977 408.785 202.118 408.272 202.118 407.246C202.106 407.081 202.138 406.915 202.211 406.765C202.284 406.614 202.395 406.484 202.535 406.385C202.817 406.202 203.51 406.106 204.626 406.106C205.209 406.129 205.786 405.979 206.276 405.675C206.467 405.568 206.627 405.415 206.739 405.233C206.851 405.05 206.913 404.843 206.919 404.631L206.913 374.014Z" fill="black"/>
<path d="M239.096 375.451C239.096 374.416 238.887 373.71 238.465 373.327C238.004 372.918 237.445 372.623 236.837 372.47C236.351 372.362 235.887 372.18 235.462 371.931C235.323 371.808 235.217 371.655 235.151 371.486C235.086 371.316 235.063 371.134 235.085 370.955C235.084 370.82 235.118 370.688 235.184 370.569C235.249 370.451 235.345 370.35 235.462 370.275C235.716 370.091 236.028 369.995 236.347 370C237.229 370.031 238.108 370.121 238.977 370.27C239.865 370.421 240.763 370.512 241.664 370.539C242.496 370.514 243.324 370.433 244.143 370.297C244.953 370.161 245.772 370.08 246.594 370.054C247.523 370.054 247.991 370.426 247.991 371.17C248.014 371.341 247.993 371.515 247.929 371.675C247.865 371.836 247.761 371.98 247.625 372.092C247.161 372.326 246.657 372.478 246.137 372.54C245.793 372.59 245.466 372.717 245.184 372.912C244.902 373.107 244.673 373.364 244.515 373.661C244.128 374.51 243.955 375.433 244.008 376.357V404.147C243.961 404.716 244.152 405.28 244.538 405.714C244.925 406.149 245.476 406.419 246.07 406.466C246.656 406.552 247.205 406.795 247.653 407.167C247.843 407.415 247.942 407.716 247.934 408.024C247.934 408.676 247.371 409 246.199 409C245.427 408.976 244.658 408.891 243.901 408.747C243.145 408.604 242.378 408.52 241.608 408.493C240.853 408.513 240.101 408.58 239.355 408.693C238.609 408.806 237.856 408.875 237.101 408.898C235.701 408.898 235 408.472 235 407.62C234.996 407.391 235.076 407.167 235.225 406.989C235.372 406.811 235.901 406.644 236.808 406.493C237.188 406.463 237.554 406.341 237.871 406.139C238.188 405.938 238.447 405.662 238.622 405.339C238.928 404.688 239.08 403.981 239.067 403.268L239.096 375.451Z" fill="black"/>
<path d="M268.211 379.412C267.848 378.591 267.577 378.175 267.399 378.175C267.22 378.175 266.858 378.748 266.42 379.898L260.673 393.037L255.7 404.107C255.573 404.388 255.501 404.691 255.489 404.998C255.492 405.271 255.603 405.531 255.798 405.722C256.23 406.047 256.732 406.267 257.264 406.365C257.795 406.462 258.295 406.686 258.72 407.018C258.911 407.215 259.018 407.478 259.017 407.753C259.017 408.584 258.476 409 257.394 409C256.775 408.958 256.159 408.882 255.549 408.773C254.742 408.637 253.926 408.561 253.108 408.546C252.422 408.548 251.737 408.614 251.063 408.746C250.557 408.856 250.043 408.923 249.526 408.946C249.136 408.959 248.752 408.835 248.444 408.595C248.312 408.5 248.204 408.375 248.129 408.23C248.054 408.086 248.013 407.926 248.011 407.763C247.988 407.601 248 407.436 248.046 407.279C248.092 407.121 248.17 406.976 248.276 406.851C248.578 406.665 248.919 406.554 249.272 406.527C250.663 406.295 251.626 405.771 252.151 404.955C252.676 404.14 254.039 401.245 256.231 396.277L262.751 381.756C264.353 378.274 265.382 375.965 265.841 374.827C266.223 373.99 266.456 373.093 266.528 372.176C266.48 371.776 266.387 371.383 266.252 371.004C266.122 370.607 266.042 370.195 266.014 369.778C266.014 369.238 266.29 369 266.847 369C267.283 368.992 267.713 369.094 268.099 369.296C268.485 369.498 268.814 369.794 269.055 370.156C269.928 371.539 270.674 372.997 271.284 374.514L278.751 391.352C281.467 397.472 283.185 401.265 283.902 402.73C284.337 403.755 284.934 404.704 285.672 405.538C286.145 405.968 286.709 406.286 287.322 406.467C287.791 406.586 288.237 406.781 288.642 407.045C288.77 407.168 288.867 407.317 288.928 407.483C288.989 407.648 289.012 407.825 288.994 408.001C288.994 408.627 288.426 408.941 287.29 408.941C286.6 408.918 285.912 408.86 285.228 408.768C284.237 408.651 283.239 408.594 282.241 408.595C281.208 408.597 280.176 408.664 279.152 408.795C278.422 408.9 277.686 408.967 276.949 408.995C276.445 409.02 275.943 408.912 275.494 408.681C275.332 408.605 275.195 408.484 275.099 408.333C275.004 408.182 274.953 408.007 274.953 407.828C274.948 407.685 274.975 407.543 275.031 407.412C275.087 407.28 275.171 407.162 275.277 407.067C275.494 406.867 276.078 406.721 277.025 406.629C277.972 406.537 278.589 406.338 278.87 406.024C279.155 405.704 279.306 405.286 279.292 404.858C279.292 404.361 278.78 402.981 277.756 400.716C276.731 398.452 276.093 397.249 275.84 397.109C275.38 396.927 274.883 396.853 274.39 396.893H262.383C261.922 396.893 261.474 396.735 261.117 396.444C260.951 396.324 260.816 396.166 260.722 395.984C260.628 395.803 260.578 395.601 260.576 395.397C260.58 395.236 260.623 395.078 260.7 394.936C260.777 394.795 260.886 394.673 261.019 394.581C261.306 394.355 261.66 394.231 262.026 394.23H273.594C274.238 394.23 274.563 394.112 274.563 393.879C274.489 393.514 274.361 393.161 274.184 392.832L268.211 379.412Z" fill="black"/>
<path d="M143.568 438.336C143.566 438.608 143.647 438.875 143.803 439.102C144.055 439.38 144.392 439.573 144.766 439.654C145.085 439.724 145.386 439.857 145.649 440.045C145.746 440.154 145.799 440.293 145.798 440.437C145.798 440.564 145.694 440.69 145.5 440.812C145.269 440.936 145.007 440.997 144.743 440.988C144.358 440.97 143.975 440.928 143.597 440.861C143.232 440.793 142.862 440.749 142.491 440.729C142.096 440.739 141.704 440.778 141.316 440.845C140.965 440.907 140.611 440.946 140.255 440.961C139.573 440.961 139.229 440.762 139.229 440.365C139.217 440.281 139.226 440.195 139.256 440.116C139.286 440.036 139.336 439.964 139.401 439.907C139.6 439.805 139.819 439.741 140.043 439.72C140.335 439.68 140.607 439.555 140.823 439.362C141.077 439.008 141.185 438.575 141.126 438.148V423.724C141.132 423.43 141.059 423.139 140.914 422.88C140.807 422.733 140.67 422.608 140.512 422.514C140.353 422.419 140.176 422.356 139.992 422.329C139.682 422.277 139.391 422.152 139.143 421.965C139.048 421.839 138.998 421.686 139 421.529C139.008 421.463 139.032 421.399 139.069 421.342C139.107 421.286 139.158 421.239 139.218 421.204C139.364 421.097 139.544 421.041 139.728 421.044C140.181 421.051 140.633 421.09 141.081 421.16C141.499 421.227 141.923 421.266 142.347 421.276C142.747 421.27 143.145 421.237 143.539 421.177C143.985 421.108 144.435 421.073 144.886 421.072C145.339 421.072 145.568 421.254 145.568 421.623C145.579 421.709 145.569 421.797 145.538 421.878C145.507 421.959 145.456 422.033 145.391 422.092C145.182 422.198 144.958 422.273 144.726 422.312C144.421 422.371 144.141 422.513 143.918 422.72C143.658 423.085 143.544 423.528 143.597 423.967L143.568 438.336ZM155.77 438.336C155.768 438.632 155.854 438.923 156.017 439.174C156.257 439.467 156.603 439.664 156.985 439.725C157.298 439.779 157.594 439.896 157.857 440.067C157.951 440.171 158.003 440.304 158 440.442C158 440.575 157.902 440.701 157.702 440.823C157.471 440.947 157.209 441.008 156.945 440.999C156.561 440.981 156.178 440.939 155.799 440.872C155.434 440.804 155.064 440.76 154.693 440.74C154.299 440.75 153.906 440.789 153.518 440.856C153.168 440.918 152.813 440.957 152.458 440.972C151.776 440.972 151.432 440.773 151.432 440.376C151.419 440.291 151.429 440.204 151.461 440.124C151.493 440.044 151.546 439.973 151.615 439.918C151.82 439.815 152.044 439.751 152.274 439.731C152.573 439.692 152.853 439.567 153.077 439.373C153.337 439.019 153.45 438.584 153.392 438.154V429.883C153.398 429.756 153.376 429.63 153.328 429.512C153.279 429.394 153.206 429.288 153.111 429.199C152.728 428.987 152.283 428.9 151.844 428.951H145.545C145.194 428.987 144.839 428.93 144.519 428.786C144.443 428.73 144.382 428.656 144.343 428.571C144.304 428.486 144.288 428.393 144.296 428.301C144.291 428.201 144.317 428.103 144.37 428.018C144.423 427.932 144.501 427.864 144.594 427.821C144.934 427.698 145.298 427.647 145.66 427.672H152.429C152.801 427.672 153.042 427.617 153.145 427.501C153.274 427.308 153.33 427.078 153.306 426.85C153.306 424.832 153.279 423.612 153.226 423.189C153.174 422.765 152.779 422.456 152.033 422.263C151.763 422.215 151.513 422.094 151.311 421.915C151.22 421.79 151.174 421.639 151.179 421.485C151.186 421.419 151.208 421.355 151.245 421.298C151.282 421.242 151.332 421.194 151.392 421.16C151.538 421.054 151.718 420.997 151.902 421C152.355 421.007 152.807 421.045 153.254 421.116C153.675 421.183 154.1 421.222 154.527 421.232C154.924 421.226 155.32 421.192 155.713 421.132C156.158 421.064 156.609 421.029 157.06 421.028C157.513 421.028 157.742 421.21 157.742 421.579C157.753 421.664 157.743 421.75 157.713 421.83C157.683 421.91 157.634 421.983 157.57 422.042C157.366 422.143 157.145 422.208 156.917 422.235C156.609 422.28 156.324 422.417 156.103 422.627C155.827 423.003 155.709 423.466 155.77 423.922V438.336Z" fill="black"/>
<path d="M168.019 421.001C171.125 421.001 173.562 422.061 175.331 424.179C177.057 426.151 178.005 428.676 177.999 431.288C178.018 433.161 177.52 435.004 176.558 436.616C175.71 438.126 174.389 439.32 172.796 440.017C171.244 440.675 169.572 441.009 167.885 440.997C166.567 441.031 165.256 440.787 164.039 440.282C162.822 439.777 161.726 439.023 160.824 438.068C159.885 437.077 159.153 435.912 158.669 434.639C158.186 433.366 157.96 432.011 158.006 430.652C158.022 429.016 158.452 427.41 159.255 425.98C160.067 424.465 161.291 423.206 162.788 422.347C164.378 421.439 166.185 420.974 168.019 421.001V421.001ZM167.944 439.747C169.414 439.8 170.867 439.418 172.118 438.65C173.161 437.999 173.99 437.06 174.504 435.949C175.036 434.588 175.282 433.133 175.224 431.674C175.224 428.599 174.576 426.249 173.281 424.624C172.629 423.855 171.814 423.238 170.894 422.817C169.975 422.395 168.973 422.18 167.96 422.187C166.947 422.193 165.948 422.421 165.033 422.855C164.119 423.288 163.313 423.915 162.671 424.693C161.368 426.398 160.686 428.492 160.738 430.631C160.738 436.708 163.14 439.747 167.944 439.747Z" fill="black"/>
<path d="M190.936 421C191.257 421 191.499 421.323 191.707 421.97C191.894 422.553 191.992 423.16 192 423.772C192 424.32 191.82 424.605 191.437 424.605C191.306 424.605 191.178 424.56 191.077 424.478C190.869 424.224 190.715 423.932 190.627 423.618C190.489 423.187 190.181 422.827 189.771 422.616C189.386 422.439 188.965 422.349 188.539 422.353C188.291 422.331 188.041 422.357 187.805 422.431C187.568 422.504 187.348 422.623 187.16 422.78C186.841 423.177 186.69 423.676 186.737 424.177V438.628C186.735 438.838 186.806 439.043 186.94 439.209C187.173 439.429 187.466 439.579 187.784 439.641C188.066 439.699 188.333 439.809 188.572 439.965C188.66 440.048 188.711 440.163 188.713 440.282C188.713 440.759 188.454 441 187.942 441C187.529 440.986 187.117 440.944 186.709 440.874C186.313 440.806 185.912 440.766 185.51 440.753C185.154 440.763 184.798 440.798 184.447 440.858C184.095 440.913 183.739 440.946 183.383 440.956C183.121 440.965 182.863 440.898 182.64 440.764C182.543 440.709 182.463 440.628 182.41 440.532C182.356 440.435 182.331 440.326 182.336 440.217C182.334 440.108 182.374 440.002 182.449 439.921C182.67 439.765 182.924 439.656 183.192 439.603C183.535 439.534 183.838 439.337 184.036 439.055C184.184 438.792 184.26 438.496 184.255 438.195V423.591C184.255 422.709 183.642 422.271 182.426 422.271C182.121 422.246 181.814 422.281 181.524 422.375C181.234 422.47 180.966 422.62 180.738 422.819C180.505 423.082 180.351 423.402 180.293 423.744C180.262 424.01 180.163 424.265 180.006 424.484C179.902 424.565 179.773 424.608 179.64 424.605C179.487 424.604 179.337 424.563 179.207 424.484C179.149 424.458 179.1 424.417 179.064 424.366C179.028 424.315 179.007 424.255 179.004 424.194C178.979 423.409 179.068 422.626 179.269 421.866C179.449 421.318 179.702 421.027 180.04 421.027L190.936 421Z" fill="black"/>
<path d="M202.996 439.689C203.186 439.703 203.377 439.678 203.557 439.616C203.737 439.553 203.902 439.454 204.043 439.324C204.162 439.202 204.256 439.056 204.317 438.896C204.378 438.736 204.406 438.565 204.4 438.393C204.385 438.105 204.465 437.819 204.626 437.581C204.685 437.49 204.765 437.415 204.859 437.362C204.953 437.309 205.058 437.279 205.166 437.276C205.272 437.273 205.378 437.298 205.472 437.347C205.567 437.397 205.647 437.47 205.706 437.559C205.852 437.786 205.923 438.052 205.911 438.322C205.911 438.638 205.911 438.981 205.954 439.346C205.997 439.711 205.992 439.962 205.992 440.098C206.022 440.35 205.969 440.604 205.841 440.823C205.733 440.937 205.468 440.991 205.036 440.991H194.143C193.615 441.024 193.086 440.965 192.578 440.817C192.292 440.703 192.151 440.528 192.151 440.272C192.151 439.907 192.41 439.728 192.918 439.728C193.368 439.787 193.824 439.674 194.197 439.412C194.418 439.123 194.524 438.762 194.494 438.398V426.005C194.494 424.665 194.467 423.777 194.424 423.341C194.428 423.187 194.4 423.033 194.342 422.889C194.285 422.746 194.199 422.616 194.089 422.508C193.751 422.355 193.379 422.293 193.01 422.328C192.747 422.342 192.486 422.278 192.259 422.143C192.179 422.093 192.113 422.024 192.067 421.941C192.022 421.858 191.999 421.764 192 421.669C192.001 421.58 192.022 421.493 192.062 421.414C192.101 421.335 192.157 421.265 192.227 421.211C192.387 421.073 192.594 421.001 192.804 421.01H203.158C203.302 420.989 203.45 421.001 203.589 421.046C203.728 421.09 203.856 421.165 203.962 421.266C204.108 421.497 204.201 421.757 204.238 422.028C204.308 422.57 204.337 423.117 204.324 423.663C204.324 424.011 204.178 424.207 203.881 424.207C203.718 424.208 203.56 424.153 203.433 424.049C203.232 423.823 203.084 423.553 203.001 423.26C202.916 422.948 202.748 422.665 202.516 422.442C202.347 422.326 202.147 422.266 201.943 422.268H198.251C197.842 422.212 197.427 422.305 197.08 422.53C196.903 422.755 196.816 423.039 196.837 423.325V426.196C196.788 426.656 196.882 427.121 197.107 427.525C197.256 427.649 197.429 427.74 197.614 427.795C197.8 427.849 197.995 427.865 198.186 427.841H201.771C201.905 427.847 202.038 427.817 202.157 427.754C202.275 427.691 202.375 427.597 202.445 427.481C202.599 427.241 202.679 426.961 202.678 426.675C202.676 426.601 202.692 426.527 202.724 426.46C202.756 426.393 202.803 426.334 202.861 426.288C202.987 426.184 203.146 426.129 203.309 426.13C203.391 426.128 203.473 426.143 203.549 426.174C203.625 426.205 203.694 426.251 203.752 426.31C203.812 426.378 203.859 426.457 203.888 426.543C203.918 426.629 203.93 426.72 203.924 426.811C203.917 427.086 203.888 427.359 203.838 427.629C203.786 427.916 203.757 428.208 203.752 428.5C203.754 428.866 203.792 429.231 203.865 429.59C203.932 429.818 203.984 430.051 204.022 430.287C204.025 430.382 204.009 430.477 203.975 430.566C203.94 430.655 203.888 430.736 203.822 430.804C203.761 430.869 203.689 430.92 203.608 430.954C203.527 430.989 203.44 431.007 203.352 431.006C203.259 431.006 203.167 430.983 203.084 430.94C203.001 430.896 202.93 430.833 202.877 430.755C202.744 430.553 202.68 430.312 202.694 430.069C202.707 429.935 202.69 429.799 202.643 429.672C202.596 429.546 202.521 429.432 202.424 429.339C202.158 429.171 201.846 429.094 201.533 429.121H197.976C197.698 429.109 197.423 429.177 197.182 429.317C197.083 429.375 197.001 429.46 196.945 429.562C196.89 429.663 196.864 429.779 196.869 429.895V438.562C196.847 438.73 196.868 438.902 196.928 439.061C196.988 439.22 197.087 439.361 197.215 439.472C197.579 439.654 197.986 439.734 198.391 439.7L202.996 439.689Z" fill="black"/>
<path d="M216.192 439.601C216.474 439.609 216.753 439.528 216.993 439.367C217.136 439.238 217.253 439.08 217.339 438.901C217.424 438.722 217.476 438.527 217.491 438.326C217.515 437.975 217.629 437.639 217.82 437.355C217.946 437.241 218.105 437.182 218.268 437.187C218.342 437.193 218.413 437.214 218.479 437.251C218.545 437.287 218.604 437.337 218.651 437.398C218.719 437.476 218.772 437.568 218.806 437.669C218.841 437.77 218.856 437.877 218.851 437.984C218.851 438.77 218.901 439.555 219 440.333C219 440.816 218.786 441.038 218.358 440.995C217.924 440.951 217.489 440.932 217.053 440.94H207.394C206.632 440.94 206.254 440.723 206.254 440.3C206.254 440.018 206.324 439.834 206.458 439.758C206.657 439.668 206.87 439.624 207.085 439.628C207.623 439.595 207.957 439.438 208.081 439.161C208.215 438.87 208.281 438.548 208.275 438.223V424.054C208.281 423.737 208.205 423.425 208.056 423.154C207.806 422.814 207.453 422.583 207.061 422.503C206.728 422.424 206.417 422.261 206.154 422.025C206.054 421.88 205.999 421.703 206 421.521C206.007 421.457 206.027 421.396 206.059 421.343C206.091 421.289 206.134 421.244 206.184 421.212C206.313 421.106 206.471 421.051 206.632 421.054C206.919 421.104 207.199 421.188 207.469 421.304C207.94 421.476 208.435 421.561 208.933 421.553C209.574 421.558 210.212 421.464 210.83 421.277C211.203 421.141 211.589 421.049 211.98 421C212.166 421 212.345 421.08 212.478 421.222C212.544 421.282 212.597 421.357 212.635 421.441C212.673 421.525 212.694 421.617 212.697 421.711C212.7 421.851 212.654 421.987 212.567 422.09C212.367 422.244 212.134 422.339 211.89 422.367C211.534 422.415 211.193 422.553 210.894 422.768C210.715 422.966 210.578 423.204 210.492 423.465C210.406 423.726 210.373 424.005 210.396 424.282V437.805C210.353 438.296 210.456 438.788 210.69 439.21C210.794 439.343 210.926 439.447 211.073 439.515C211.221 439.583 211.382 439.612 211.542 439.601H216.192Z" fill="black"/>
</svg>
