<svg width="358" height="472" fill="none" xmlns="http://www.w3.org/2000/svg"><path fill="#fff" d="M0 0h358v472H0z"/><g clip-path="url(#clip0)"><path d="M123.199 313.398c3.881.319 7.862.661 11.69 1.333.198 4.155-6.104 2.631-8.815 2.631H93.249c-3.281 0-6.569 0-9.828-.133-5.19-.255-10.474 0-15.658 0h-12.11c-.535 0-3.334-.348-3.636 0 1.332-1.519 1.943-2.898 2.636-2.898 14.21-.869 21.227-10.866 26.383-21.918 8.728-18.753 16.293-38.058 24.707-56.991.471-1.049 6.703-2.127 6.982-2.046-5.982 18.053-13.302 35.23-13.674 54.123-.332 15.288 8.711 24.624 24.148 25.899zm180.723 1.043a9.761 9.761 0 00-2.822-.875c-7.518-.498-12.802-4.572-16.438-10.669-3.637-6.097-7.431-12.275-10.073-18.846-18.038-44.891-59.411-148.94-61.098-153.292-10.998-27.853-22.304-55.59-33.575-83.326-.663-1.628-2.043-2.961-3.084-4.433-1.036 1.426-2.438 2.718-3.043 4.306-3.806 9.91-7.565 19.843-10.998 29.886a10.913 10.913 0 00.279 6.885 39061.077 39061.077 0 0051.061 131.844c1.396 3.599 2.729 7.221 4.323 11.44h-.506c.03.363.005.728-.076 1.084a3.346 3.346 0 01-.785 2.236l.465.093c2.078.516 3.352 1.832 4.347 4.636 5.61 15.717 11.714 31.266 17.527 46.914a25.158 25.158 0 01.5 15.937 26.381 26.381 0 01-3.491 7.313c-1.519 2.208-4.12 3.663-6.535 4.724-.884.388-11.003 3.477-15.292 4.01l-1.298 2.898s81.919-.209 92.689-.209c-.093-1.704-.064-1.756-2.077-2.556zM150.304 111.837l-43.537 120.919s5.778 1.067 5.923.609c3.143-9.904 38.481-121.291 37.614-121.528zm68.156 115.524l-73.731 1.82 74.907 2.109-1.176-3.929z" fill="#D59530"/><path d="M72.733 363.667c-.367-.846-.646-1.269-.827-1.269-.18 0-.582.579-1.006 1.738L65 377.599l-5.069 11.364a2.451 2.451 0 00-.221.91 1.03 1.03 0 00.32.742c.445.332.96.558 1.507.661.545.1 1.057.329 1.496.666.192.204.3.473.302.753 0 .852-.553 1.281-1.658 1.281a17.034 17.034 0 01-1.897-.232 16.954 16.954 0 00-2.526-.214c-.705.003-1.408.073-2.1.209a9.407 9.407 0 01-1.577.208 1.75 1.75 0 01-1.164-.365 1.073 1.073 0 01-.442-.852 1.187 1.187 0 01.273-.933 2.169 2.169 0 011.019-.33c1.431-.244 2.42-.777 2.962-1.617.54-.84 1.937-3.796 4.183-8.884l6.698-14.883c1.64-3.566 2.696-5.93 3.165-7.093a7.92 7.92 0 00.71-2.718 5.423 5.423 0 00-.244-1.194 5.109 5.109 0 01-.25-1.258c0-.533.29-.799.86-.799a2.68 2.68 0 012.264 1.188 27.528 27.528 0 012.293 4.462l7.663 17.253c2.79 6.282 4.55 10.167 5.284 11.654a10.698 10.698 0 001.821 2.898 4.308 4.308 0 001.7.95c.478.119.934.315 1.35.58a1.204 1.204 0 01.36.979c0 .644-.582.968-1.745.968-.39 0-1.094-.064-2.119-.18a25.971 25.971 0 00-3.066-.179c-1.06.004-2.12.071-3.171.203-.75.109-1.506.178-2.264.208a2.97 2.97 0 01-1.495-.319.98.98 0 01-.582-.88 1.026 1.026 0 01.331-.783 3.718 3.718 0 011.798-.44c.972-.093 1.606-.302 1.891-.62.29-.33.444-.756.431-1.194 0-.518-.525-1.934-1.577-4.248-1.047-2.318-1.705-3.547-1.96-3.698a3.45 3.45 0 00-1.496-.22H66.774a2.034 2.034 0 01-1.303-.458 1.343 1.343 0 01-.582-1.072 1.054 1.054 0 01.454-.834c.293-.235.659-.362 1.035-.36h11.883c.663 0 .995-.121.995-.359a4.09 4.09 0 00-.39-1.078l-6.133-13.775zm44.404-10.003c.622 0 1.128.649 1.518 1.953.367 1.179.563 2.405.582 3.639 0 1.119-.366 1.681-1.094 1.681a1.13 1.13 0 01-.716-.249 4.936 4.936 0 01-.89-1.739 3.438 3.438 0 00-1.681-2.022 5.542 5.542 0 00-2.439-.539c-1.249 0-2.154.29-2.717.869-.582.58-.844 1.513-.844 2.817v29.196c-.002.421.139.83.402 1.16.462.446 1.044.75 1.676.875a4.215 4.215 0 011.547.654.877.877 0 01.28.638c0 .968-.506 1.449-1.519 1.449a17.561 17.561 0 01-2.432-.244 16.898 16.898 0 00-2.374-.249c-.702.022-1.402.089-2.095.203-.695.118-1.397.188-2.101.209a2.627 2.627 0 01-1.46-.389 1.236 1.236 0 01-.439-.466 1.23 1.23 0 01-.143-.623.917.917 0 01.221-.58 3.815 3.815 0 011.466-.637 2.69 2.69 0 001.676-1.159 3.534 3.534 0 00.431-1.739v-29.475c0-1.785-1.205-2.671-3.614-2.671-1.56 0-2.677.347-3.334 1.054a3.718 3.718 0 00-.885 1.866c-.059.543-.26 1.06-.581 1.501-.205.158-.458.24-.716.232a1.65 1.65 0 01-.85-.232.68.68 0 01-.407-.579c-.05-1.584.126-3.166.524-4.7.349-1.159.855-1.692 1.518-1.692l21.49-.012z" fill="#000"/><path d="M141.861 391.276c.63.017 1.251-.15 1.786-.481.512-.317.873-1.024 1.083-2.121.215-1.096.459-1.739.733-1.988.282-.229.637-.35 1.001-.342a1.244 1.244 0 01.855.44 1.59 1.59 0 01.442 1.159c.001 1.604.112 3.205.332 4.793 0 .991-.477 1.443-1.437 1.35a27.443 27.443 0 00-2.91-.11h-21.553c-1.695 0-2.543-.436-2.543-1.309 0-.58.152-.945.454-1.102a3.428 3.428 0 011.397-.26c1.204-.076 1.949-.394 2.246-.951a4.105 4.105 0 00.442-1.918v-28.878a3.434 3.434 0 00-.5-1.831c-.332-.545-1.054-.986-2.171-1.339-1.117-.354-1.792-.672-2.019-.974-.23-.29-.354-.65-.349-1.02a.835.835 0 01.419-.637c.285-.212.633-.323.989-.313a8.218 8.218 0 011.868.51c1.054.349 2.159.521 3.27.51 1.429.003 2.85-.192 4.225-.58a12.801 12.801 0 012.572-.579 1.59 1.59 0 011.117.452 1.342 1.342 0 01.483.997 1.11 1.11 0 01-.291.776c-.443.321-.963.52-1.507.58a5.103 5.103 0 00-2.188.823c-.714.606-1.073 1.636-1.077 3.088v27.586c0 1.376.218 2.33.652 2.863a2.293 2.293 0 001.897.8l10.282.006zm27.122-27.609c-.367-.846-.646-1.269-.832-1.269-.187 0-.582.579-1.007 1.738l-5.9 13.463-5.098 11.341c-.135.285-.21.595-.221.91.002.279.115.546.314.742.447.329.962.555 1.508.66.545.1 1.058.328 1.495.667.197.202.307.472.308.753 0 .852-.582 1.281-1.664 1.281a16.948 16.948 0 01-1.891-.232 17.004 17.004 0 00-2.508-.237c-.705.002-1.409.072-2.101.208a9.398 9.398 0 01-1.576.209 1.749 1.749 0 01-1.164-.365 1.077 1.077 0 01-.442-.852 1.188 1.188 0 01.273-.933 2.166 2.166 0 011.018-.33c1.432-.244 2.415-.777 2.956-1.617.542-.841 1.938-3.796 4.19-8.885l6.697-14.882c1.641-3.566 2.697-5.931 3.166-7.093a7.897 7.897 0 00.704-2.718 5.4 5.4 0 00-.244-1.194 5.337 5.337 0 01-.245-1.258c0-.533.285-.8.856-.8a2.682 2.682 0 012.269 1.188 27.531 27.531 0 012.293 4.463l7.663 17.252c2.785 6.283 4.547 10.167 5.284 11.655a10.863 10.863 0 001.815 2.898 4.408 4.408 0 001.699.95 4.5 4.5 0 011.356.579 1.204 1.204 0 01.361.98c0 .643-.582.968-1.746.968-.39 0-1.094-.064-2.124-.18a26.091 26.091 0 00-3.06-.18 26.574 26.574 0 00-3.178.203c-.748.109-1.502.179-2.257.209a2.972 2.972 0 01-1.496-.319.983.983 0 01-.553-.881 1.045 1.045 0 01.332-.782 3.718 3.718 0 011.798-.441c.972-.092 1.6-.301 1.891-.62.29-.329.443-.756.431-1.193 0-.518-.526-1.934-1.577-4.248-1.053-2.319-1.705-3.547-1.961-3.698a3.45 3.45 0 00-1.495-.22h-12.319a2.042 2.042 0 01-1.298-.458 1.346 1.346 0 01-.582-1.072c.006-.165.05-.326.128-.471.079-.145.191-.269.326-.364a1.635 1.635 0 011.036-.359h11.871c.663 0 .995-.122.995-.359a4.009 4.009 0 00-.384-1.078l-6.11-13.729z" fill="#000"/><path d="M220.003 358.926a2.272 2.272 0 00-.786-1.808 3.013 3.013 0 00-2.007-.672 3.075 3.075 0 01-1.525-.331.955.955 0 01-.582-.84 1.161 1.161 0 01.536-.997 2.068 2.068 0 011.163-.371c.221 0 .972.111 2.246.331.843.17 1.697.281 2.555.33a13.144 13.144 0 002.194-.243c.651-.137 1.313-.22 1.978-.25 1.1 0 1.653.435 1.653 1.304 0 .713-.553 1.067-1.659 1.067a3.96 3.96 0 00-2.118.44 1.8 1.8 0 00-.791 1.061 6.621 6.621 0 00-.157 1.588v27.522a11.724 11.724 0 00.582 4.242c.337.758.535 1.571.581 2.399 0 .58-.244.858-.744.858-.284.02-.567-.06-.798-.226a5.984 5.984 0 01-.826-.985L198.426 363c-.238-.307-.459-.463-.663-.463-.204 0-.413.347-.413 1.043v25.418a2.139 2.139 0 00.977 1.837 3.313 3.313 0 001.868.69c1.478 0 2.217.483 2.217 1.449.013.264-.077.523-.25.724a1.624 1.624 0 01-1.164.278 21.834 21.834 0 01-2.653-.232c-1.164-.156-1.938-.237-2.287-.237-.815.031-1.627.111-2.432.237-1.164.157-1.856.232-2.153.232-.937 0-1.408-.434-1.408-1.309 0-.725.552-1.09 1.658-1.09.796.04 1.577-.23 2.176-.753a2.806 2.806 0 00.815-2.156v-29.33a3.142 3.142 0 00-.693-2.139 2.206 2.206 0 00-1.745-.8c-.648.055-1.3-.05-1.897-.307a1.031 1.031 0 01-.483-.944c0-.765.465-1.159 1.402-1.159.418.029.834.081 1.245.156.547.089 1.099.14 1.653.151.392-.01.782-.061 1.164-.151a5.193 5.193 0 011.164-.156c.529 0 1.163.434 1.966 1.298.803.863 3.492 4.34 8.054 10.431l12.219 16.227c.204.273.396.412.582.412.408 0 .582-.499.582-1.49l.076-21.941zm31.27-5.262c.623 0 1.129.649 1.519 1.953.367 1.179.563 2.405.582 3.639 0 1.119-.367 1.681-1.094 1.681a1.13 1.13 0 01-.716-.249 4.936 4.936 0 01-.89-1.739 3.44 3.44 0 00-1.682-2.022 5.507 5.507 0 00-2.438-.539c-1.253 0-2.159.29-2.717.869-.559.58-.838 1.518-.838 2.817v29.196c-.005.42.135.829.396 1.16a3.35 3.35 0 001.675.875 4.22 4.22 0 011.548.654.877.877 0 01.28.638c0 .968-.507 1.449-1.519 1.449a17.49 17.49 0 01-2.427-.244 17.017 17.017 0 00-2.374-.249c-.704.021-1.405.089-2.1.203-.695.118-1.397.188-2.101.209a2.625 2.625 0 01-1.46-.389 1.22 1.22 0 01-.611-1.089.894.894 0 01.226-.58 3.726 3.726 0 011.467-.637 2.692 2.692 0 001.67-1.159c.29-.534.439-1.132.43-1.739v-29.475c0-1.785-1.204-2.671-3.613-2.671-1.56 0-2.677.347-3.334 1.054a3.722 3.722 0 00-.885 1.866 3.05 3.05 0 01-.582 1.501c-.204.158-.457.24-.715.232a1.651 1.651 0 01-.85-.232.674.674 0 01-.407-.579 16.585 16.585 0 01.523-4.7c.35-1.159.856-1.692 1.519-1.692l21.518-.012zm6.995 5.911c0-1.06-.204-1.791-.623-2.185a3.848 3.848 0 00-1.6-.875 4.652 4.652 0 01-1.356-.579 1.16 1.16 0 01-.378-1.009.856.856 0 01.372-.695c.252-.186.559-.284.873-.278.87.03 1.738.121 2.595.272.875.157 1.76.25 2.648.278.82-.024 1.636-.108 2.444-.249.798-.137 1.605-.22 2.415-.249.919 0 1.385.382 1.385 1.159.021.175-.001.352-.063.517a1.102 1.102 0 01-.298.428c-.457.24-.954.395-1.467.457a2.171 2.171 0 00-1.606 1.16 6.086 6.086 0 00-.5 2.764v28.513a2.208 2.208 0 00.526 1.607c.381.445.925.722 1.511.769a3.134 3.134 0 011.565.719c.183.257.278.565.273.88 0 .667-.581 1.003-1.71 1.003a14.223 14.223 0 01-2.264-.261 14.459 14.459 0 00-2.263-.261 18.52 18.52 0 00-2.194.203c-.736.117-1.478.187-2.223.209-1.385 0-2.072-.435-2.072-1.31a.983.983 0 01.222-.643c.145-.186.669-.359 1.565-.51a2.222 2.222 0 001.78-1.159c.304-.67.455-1.398.443-2.133v-28.542zm46.277 25.61a.993.993 0 01.728.319.858.858 0 01.308.579c0 .643-.739 1.669-2.229 3.077a18.977 18.977 0 01-5.818 3.605 19.548 19.548 0 01-7.612 1.507 21.784 21.784 0 01-11.247-2.811 18.756 18.756 0 01-7.321-7.829 22.77 22.77 0 01-2.542-10.432 21.436 21.436 0 012.49-10.13 18.071 18.071 0 017.082-7.372 21.013 21.013 0 0110.654-2.643 24.47 24.47 0 017.14 1.003 16.854 16.854 0 015.173 2.44c1.26.958 1.893 1.684 1.897 2.179 0 .771 0 1.472-.059 2.092-.058.62-.052 1.003-.052 1.13.022.343.086.682.192 1.009.121.406.186.827.192 1.251 0 .58-.378.91-1.129.91a1.063 1.063 0 01-.721-.33 6.996 6.996 0 01-1.053-1.855 13.626 13.626 0 00-3.154-4.694c-1.979-1.715-4.741-2.573-8.286-2.573-4.562 0-8.112 1.652-10.649 4.955-2.537 3.303-3.805 7.567-3.805 12.79 0 5.684 1.373 10.179 4.119 13.486 2.747 3.307 6.457 4.955 11.132 4.943 1.206 0 3.094-.399 5.662-1.199a20.44 20.44 0 007.622-4.665 2.379 2.379 0 011.286-.742zm-164.837 41.378a1.58 1.58 0 00.262.887c.276.328.652.558 1.071.655.354.081.687.235.977.452a.64.64 0 01.169.452c0 .151-.111.296-.332.435a1.576 1.576 0 01-.844.208 9.609 9.609 0 01-1.309-.15 8.582 8.582 0 00-1.228-.151 8.216 8.216 0 00-1.309.133c-.384.07-.773.114-1.164.134-.762 0-1.163-.232-1.163-.69a.58.58 0 01.192-.528c.222-.116.465-.189.715-.214.325-.047.627-.19.867-.411a2.02 2.02 0 00.344-1.403v-16.673a2.01 2.01 0 00-.239-.974 1.589 1.589 0 00-1.03-.649 2.07 2.07 0 01-.948-.423.803.803 0 01-.157-.498.512.512 0 01.238-.377.91.91 0 01.582-.185 10.56 10.56 0 011.507.133c.467.08.94.124 1.414.133a8.805 8.805 0 001.327-.116 9.791 9.791 0 011.501-.121c.506 0 .762.214.762.626a.622.622 0 01-.197.539c-.229.128-.48.215-.739.255a1.793 1.793 0 00-.902.475c-.29.418-.416.927-.355 1.431l-.012 16.615zm13.599 0a1.535 1.535 0 001.356 1.611c.348.066.678.202.971.4.106.12.163.275.157.435 0 .151-.11.296-.331.435a1.578 1.578 0 01-.844.208 9.59 9.59 0 01-1.309-.15 8.745 8.745 0 00-1.228-.151 8.41 8.41 0 00-1.315.133c-.385.07-.773.115-1.164.134-.762 0-1.164-.232-1.164-.69a.58.58 0 01.198-.528c.231-.116.482-.189.739-.214.333-.045.644-.19.89-.417.29-.407.415-.908.35-1.403v-9.521a1.025 1.025 0 00-.309-.789 2.293 2.293 0 00-1.414-.289h-6.982c-.398.044-.8-.02-1.164-.186a.654.654 0 01-.25-.579.574.574 0 01.325-.545 2.833 2.833 0 011.164-.174h7.565c.281.039.567-.031.797-.197a1.15 1.15 0 00.174-.753c0-2.318-.029-3.727-.087-4.225-.058-.493-.5-.846-1.326-1.066a1.664 1.664 0 01-.804-.4.855.855 0 01-.151-.499.508.508 0 01.239-.376.909.909 0 01.582-.186c.505.009 1.008.054 1.507.133.467.08.94.124 1.414.134a8.792 8.792 0 001.326-.116c.497-.079.999-.12 1.502-.122.506 0 .762.215.762.626a.584.584 0 01-.192.533 2.095 2.095 0 01-.733.22 1.702 1.702 0 00-.908.452 2.159 2.159 0 00-.367 1.496l.024 16.626zm15.437-20.59c3.713 0 6.622 1.269 8.729 3.807a12.94 12.94 0 013.182 8.537 12.26 12.26 0 01-1.745 6.403 9.628 9.628 0 01-4.504 4.092 14.869 14.869 0 01-5.895 1.159 11.269 11.269 0 01-4.601-.861 11.224 11.224 0 01-3.848-2.657c-2.246-2.349-3.369-5.329-3.369-8.942a11.693 11.693 0 011.496-5.61 11.038 11.038 0 014.224-4.364 12.257 12.257 0 016.331-1.564zm-.093 22.52a8.912 8.912 0 004.993-1.315 7.588 7.588 0 002.863-3.246 12.72 12.72 0 00.861-5.134c0-3.69-.776-6.512-2.328-8.467a8.268 8.268 0 00-6.369-2.931 8.288 8.288 0 00-3.503.799 8.246 8.246 0 00-2.83 2.207 11.37 11.37 0 00-2.328 7.134c.004 7.302 2.878 10.953 8.624 10.953h.017zm25.935-22.057c.361 0 .652.371.873 1.125a7.42 7.42 0 01.331 2.092c0 .643-.209.967-.628.967a.66.66 0 01-.407-.144 2.73 2.73 0 01-.512-1.003 2.022 2.022 0 00-.966-1.159 3.265 3.265 0 00-1.409-.307 2.105 2.105 0 00-1.559.498 2.265 2.265 0 00-.483 1.623v16.806a1.07 1.07 0 00.227.673c.266.258.601.433.966.504.319.065.621.193.89.376a.5.5 0 01.157.366c0 .556-.291.834-.873.834a10.218 10.218 0 01-1.396-.139 9.435 9.435 0 00-1.362-.145c-.405.012-.81.053-1.21.122a9.542 9.542 0 01-1.205.116c-.297.009-.59-.07-.843-.226a.702.702 0 01-.349-.626.502.502 0 01.128-.342c.25-.182.539-.307.843-.365.395-.086.74-.323.96-.661.171-.304.257-.648.251-.997v-16.98c0-1.024-.693-1.536-2.078-1.536a2.56 2.56 0 00-1.92.58 2.172 2.172 0 00-.506 1.078 1.822 1.822 0 01-.326.863.668.668 0 01-.413.134.977.977 0 01-.489-.134.398.398 0 01-.238-.342 9.598 9.598 0 01.302-2.7c.204-.649.495-.974.879-.974l12.365.023zm14.309 21.756a1.662 1.662 0 001.233-.423 1.468 1.468 0 00.425-1.09 1.536 1.536 0 01.268-.956.804.804 0 01.64-.353.719.719 0 01.611.336c.177.261.265.572.25.886 0 .371 0 .765.046 1.194.047.429.047.725.047.881.035.295-.031.593-.186.846-.122.134-.437.197-.943.197h-12.865a5.572 5.572 0 01-1.857-.203.656.656 0 01-.5-.608c0-.429.302-.643.908-.643a2.167 2.167 0 001.513-.371c.255-.331.379-.743.349-1.159v-14.489c0-1.564-.029-2.596-.082-3.106a1.308 1.308 0 00-.395-.974 2.54 2.54 0 00-1.275-.214 1.53 1.53 0 01-.884-.214.668.668 0 01-.236-.877.685.685 0 01.195-.236c.192-.159.437-.242.687-.232h12.248a1.167 1.167 0 01.96.301c.174.268.285.571.326.887.08.64.113 1.285.099 1.93 0 .411-.174.62-.523.62a.818.818 0 01-.53-.185 2.319 2.319 0 01-.512-.922 2.047 2.047 0 00-.582-.95 1.164 1.164 0 00-.675-.209h-4.37a2.058 2.058 0 00-1.385.307 1.342 1.342 0 00-.291.933v3.35a2.611 2.611 0 00.32 1.553 1.71 1.71 0 001.292.371h4.242a.885.885 0 00.797-.423c.182-.28.277-.606.274-.939a.574.574 0 01.221-.452.812.812 0 01.524-.185.693.693 0 01.523.208.785.785 0 01.21.58c-.011.321-.046.64-.105.956a6.398 6.398 0 00-.105 1.014c.003.427.05.852.14 1.269.061.266.106.535.134.806a.82.82 0 01-.239.579.743.743 0 01-.582.238.68.68 0 01-.553-.29 1.278 1.278 0 01-.226-.799 1.027 1.027 0 00-.32-.858 1.69 1.69 0 00-1.048-.255h-4.213a1.743 1.743 0 00-.942.232.736.736 0 00-.367.672v10.124a1.19 1.19 0 00.407 1.061c.431.219.915.313 1.397.272l5.505.012zm16.566-.128c.362.009.719-.086 1.03-.272.361-.31.585-.749.622-1.223.029-.418.174-.819.419-1.159a.875.875 0 01.582-.197.733.733 0 01.495.249.951.951 0 01.25.684c0 .923.064 1.845.192 2.759 0 .579-.273.828-.826.776a14.782 14.782 0 00-1.67-.063h-12.424c-.977 0-1.466-.25-1.466-.754 0-.33.087-.545.262-.632.253-.109.527-.161.803-.15.692-.047 1.123-.226 1.292-.551.175-.34.263-.718.256-1.101v-16.604a1.971 1.971 0 00-.291-1.054 2.158 2.158 0 00-1.245-.771 2.609 2.609 0 01-1.164-.58.941.941 0 01-.198-.579.494.494 0 01.239-.365.905.905 0 01.581-.18 4.89 4.89 0 011.071.29 5.726 5.726 0 001.885.295 8.924 8.924 0 002.427-.324c.48-.158.976-.266 1.478-.325a.92.92 0 01.646.261.75.75 0 01.273.58.644.644 0 01-.163.452 1.851 1.851 0 01-.867.318c-.45.059-.881.222-1.257.476a2.203 2.203 0 00-.622 1.773v15.891a2.696 2.696 0 00.372 1.652 1.326 1.326 0 001.094.457l5.924-.029z" fill="#000"/><path d="M112.289 234.593l2.351-7.377-5.318-1.547-4.056 10.825 7.023-1.901z" fill="#D59530"/></g><defs><clipPath id="clip0"><path fill="#fff" transform="translate(52 43)" d="M0 0h254v387H0z"/></clipPath></defs></svg>