<svg width="769" height="277" fill="none" xmlns="http://www.w3.org/2000/svg">
  <path d="M265.68 274.6c-2.32 0-3.48-.44-3.48-1.32 0-.56.32-1 .96-1.32.64-.32 1.64-.6 3-.84 3.12-.56 5.44-1.56 6.96-3 1.6-1.44 2.4-3.56 2.4-6.36V215.2c0-5.36-.2-8.96-.6-10.8-.32-1.92-.96-2.96-1.92-3.12-1.04-.24-2.28-.36-3.72-.36-1.36-.08-2.96-.12-4.8-.12h-5.64c-2.08 0-4.04.4-5.88 1.2-1.84.8-3.16 1.96-3.96 3.48-.48.96-1.24 1.96-2.28 3-.96 1.04-1.84 1.56-2.64 1.56-.56 0-.84-.52-.84-1.56 0-.8.2-1.6.6-2.4 1.12-2.16 1.92-4.12 2.4-5.88.48-1.84.92-4.08 1.32-6.72.24-1.84.92-2.76 2.04-2.76.24 0 .68.44 1.32 1.32.72.88 1.28 1.72 1.68 2.52.48.8 1.52 1.4 3.12 1.8 1.68.4 3.44.6 5.28.6h42.24c4.96 0 8.76-.6 11.4-1.8.48-.24 1.16-.68 2.04-1.32.96-.72 1.84-1.08 2.64-1.08.24 0 .44.32.6.96.16.56.24 1.16.24 1.8 0 .32-.16 1.44-.48 3.36l-.72 3.6c-.32.96-.48 2.12-.48 3.48v1.44c0 .8-.2 1.64-.6 2.52-.32.88-.76 1.32-1.32 1.32s-1-.36-1.32-1.08c-.32-.8-.64-2.08-.96-3.84-.32-1.76-1.32-3.12-3-4.08s-4.36-1.44-8.04-1.44h-12.12c-2 0-3.4.24-4.2.72-.72.48-1.2 1.64-1.44 3.48-.24 1.76-.36 4.96-.36 9.6v47.16c0 2.8.8 4.92 2.4 6.36 1.6 1.44 3.96 2.44 7.08 3 1.36.24 2.36.52 3 .84.64.32.96.76.96 1.32 0 .88-1.16 1.32-3.48 1.32-2.96 0-5.52-.12-7.68-.36-2.56-.16-4.68-.24-6.36-.24-2 0-4.44.08-7.32.24-2.4.24-5.08.36-8.04.36zM326.991 274.6c-1.04 0-1.88-.16-2.52-.48-.56-.24-.84-.56-.84-.96 0-.96.88-1.64 2.64-2.04 3.28-.64 5.72-1.6 7.32-2.88 1.6-1.28 2.4-3.2 2.4-5.76V206.8c0-1.92-.2-3.32-.6-4.2-.4-.96-1.08-1.64-2.04-2.04-.88-.4-2.44-.8-4.68-1.2-2.64-.48-3.96-1.28-3.96-2.4 0-.88 1.16-1.32 3.48-1.32 2.4 0 4.88.08 7.44.24l6 .12 7.2-.12c3.04-.16 5.68-.24 7.92-.24 2.32 0 3.48.44 3.48 1.32 0 1.12-1.32 1.92-3.96 2.4-3.76.72-6.48 1.48-8.16 2.28-1.68.8-2.52 2.24-2.52 4.32v56.52c0 2.64.6 4.52 1.8 5.64 1.2 1.12 3.68 1.68 7.44 1.68h14.88c2 0 3.84-.32 5.52-.96 1.68-.64 2.96-1.36 3.84-2.16 1.6-1.36 2.76-2.56 3.48-3.6.8-1.12 1.72-2.76 2.76-4.92.32-.8.72-1.6 1.2-2.4.48-.8.96-1.2 1.44-1.2s.84.24 1.08.72c.24.4.36.88.36 1.44l-.12.6c-1.04 3.84-1.8 6.8-2.28 8.88-.4 2-.72 4.12-.96 6.36-.16 1.36-.72 2.04-1.68 2.04-8.56 0-16.44-.12-23.64-.36-8.16-.16-14-.24-17.52-.24-2.48 0-5.52.08-9.12.24-3.6.16-5.96.28-7.08.36zM393.709 274.6c-1.04 0-1.88-.16-2.52-.48-.64-.24-.96-.6-.96-1.08 0-1.04 1.32-1.96 3.96-2.76 2.32-.72 4.32-1.72 6-3 1.68-1.36 3.12-3.44 4.32-6.24 4.24-9.76 7.92-18.6 11.04-26.52 3.2-8 7-17.96 11.4-29.88.88-2.48 1.44-4.8 1.68-6.96.24-.08.8-.24 1.68-.48.96-.32 1.84-.76 2.64-1.32.64-.48 1.12-1.2 1.44-2.16.4-.96.68-1.6.84-1.92.08-.08.16-.08.24 0 .16 0 .28.04.36.12.16.4.28.84.36 1.32.16.48.32.92.48 1.32 5.92 18.64 13.04 40 21.36 64.08 1.52 4.4 3.2 7.4 5.04 9 1.84 1.52 4.2 2.52 7.08 3 1.28.24 2.24.64 2.88 1.2.72.48 1.08 1 1.08 1.56 0 .8-1.16 1.2-3.48 1.2l-6.48-.24c-4.48-.32-7.88-.48-10.2-.48l-12.6.12c-2.32 0-3.48-.48-3.48-1.44 0-.48.36-.92 1.08-1.32.8-.48 1.76-.8 2.88-.96 4.88-.8 7.32-2.6 7.32-5.4 0-2.56-1.56-9.04-4.68-19.44-.16-.56-.48-.92-.96-1.08-.4-.16-1.16-.24-2.28-.24h-22.68c-.88 0-1.56.72-2.04 2.16-.88 2.56-1.92 5.92-3.12 10.08-1.2 4.08-1.8 6.48-1.8 7.2 0 1.68.64 3.12 1.92 4.32 1.36 1.2 3.04 2.04 5.04 2.52 1.44.4 2.44.76 3 1.08.64.32.96.76.96 1.32 0 .88-1.16 1.32-3.48 1.32-1.44 0-2.64-.04-3.6-.12l-7.32-.12c-1.36 0-2.88.04-4.56.12-1.6.16-2.8.24-3.6.24-2.24.24-4.32.36-6.24.36zm46.68-34.44c.48 0 .88-.04 1.2-.12.32-.08.48-.24.48-.48l-.24-1.2-9.36-29.28c-.48-1.44-.84-2.16-1.08-2.16-.16 0-.48.68-.96 2.04l-10.92 29.4-.24.96c0 .4.16.64.48.72.4.08 1.08.12 2.04.12h18.6zM553.715 276.04c-.96 0-2.52-.68-4.68-2.04-2.08-1.36-3.96-3.2-5.64-5.52-.64-.96-5.32-6.56-14.04-16.8-8.64-10.24-14.92-17.72-18.84-22.44-6.4-7.52-10.16-11.96-11.28-13.32-1.04-1.28-1.88-1.92-2.52-1.92-.4 0-.68.28-.84.84-.16.48-.24 1.04-.24 1.68-.4 19.76-.6 34.76-.6 45 0 5.44 2.56 8.64 7.68 9.6 1.36.24 2.36.52 3 .84.64.32.96.76.96 1.32 0 .88-1.16 1.32-3.48 1.32-2.96 0-5.24-.12-6.84-.36-1.6-.16-3.08-.24-4.44-.24-1.2 0-2.6.08-4.2.24-3.12.24-5.36.36-6.72.36-2.32 0-3.48-.44-3.48-1.32 0-.48.28-.88.84-1.2.64-.32 1.68-.68 3.12-1.08 4.08-1.12 6.4-4.4 6.96-9.84.56-5.2 1.04-12.2 1.44-21 .48-8.88.72-17.88.72-27 0-3.92-1-6.84-3-8.76-1.92-1.92-4.88-3.52-8.88-4.8-.72-.24-1.52-.6-2.4-1.08-.88-.56-1.32-1.16-1.32-1.8 0-.64.28-1.08.84-1.32.64-.24 1.28-.36 1.92-.36l8.4.36c3.84.16 7.2.24 10.08.24.64 0 1.12.16 1.44.48.4.24.88.76 1.44 1.56.96 1.36 7.72 9.68 20.28 24.96 12.56 15.28 21.52 26.16 26.88 32.64 1.36 1.6 2.36 2.4 3 2.4.72 0 1.12-.84 1.2-2.52.16-6.08.24-22.36.24-48.84-.08-1.44-.92-2.84-2.52-4.2-1.52-1.36-3-2.16-4.44-2.4-3.6-.64-5.4-1.44-5.4-2.4 0-.4.52-.72 1.56-.96s2.16-.36 3.36-.36h6.84l6-.12c2.56-.16 5.16-.24 7.8-.24 2.32 0 3.48.44 3.48 1.32 0 1.12-1.32 1.92-3.96 2.4-2.96.56-4.92 1.28-5.88 2.16-.96.88-1.52 2.32-1.68 4.32-.16 2.88-.24 21.4-.24 55.56 0 3.2.16 6.24.48 9.12l.12 2.52c0 2-.84 3-2.52 3zM594.274 274.6c-2.32 0-3.48-.44-3.48-1.32 0-.56.32-1 .96-1.32.64-.32 1.64-.6 3-.84 3.12-.56 5.44-1.56 6.96-3 1.6-1.44 2.4-3.56 2.4-6.36V215.2c0-5.36-.2-8.96-.6-10.8-.32-1.92-.96-2.96-1.92-3.12-1.04-.24-2.28-.36-3.72-.36-1.36-.08-2.96-.12-4.8-.12h-5.64c-2.08 0-4.04.4-5.88 1.2-1.84.8-3.16 1.96-3.96 3.48-.48.96-1.24 1.96-2.28 3-.96 1.04-1.84 1.56-2.64 1.56-.56 0-.84-.52-.84-1.56 0-.8.2-1.6.6-2.4 1.12-2.16 1.92-4.12 2.4-5.88.48-1.84.92-4.08 1.32-6.72.24-1.84.92-2.76 2.04-2.76.24 0 .68.44 1.32 1.32.72.88 1.28 1.72 1.68 2.52.48.8 1.52 1.4 3.12 1.8 1.68.4 3.44.6 5.28.6h42.24c4.96 0 8.76-.6 11.4-1.8.48-.24 1.16-.68 2.04-1.32.96-.72 1.84-1.08 2.64-1.08.24 0 .44.32.6.96.16.56.24 1.16.24 1.8 0 .32-.16 1.44-.48 3.36l-.72 3.6c-.32.96-.48 2.12-.48 3.48v1.44c0 .8-.2 1.64-.6 2.52-.32.88-.76 1.32-1.32 1.32s-1-.36-1.32-1.08c-.32-.8-.64-2.08-.96-3.84-.32-1.76-1.32-3.12-3-4.08s-4.36-1.44-8.04-1.44h-12.12c-2 0-3.4.24-4.2.72-.72.48-1.2 1.64-1.44 3.48-.24 1.76-.36 4.96-.36 9.6v47.16c0 2.8.8 4.92 2.4 6.36 1.6 1.44 3.96 2.44 7.08 3 1.36.24 2.36.52 3 .84.64.32.96.76.96 1.32 0 .88-1.16 1.32-3.48 1.32-2.96 0-5.52-.12-7.68-.36-2.56-.16-4.68-.24-6.36-.24-2 0-4.44.08-7.32.24-2.4.24-5.08.36-8.04.36zM654.744 274.6c-2.32 0-3.48-.44-3.48-1.32 0-.56.32-1 .96-1.32.64-.32 1.64-.6 3-.84 3.2-.56 5.56-1.48 7.08-2.76 1.52-1.36 2.28-3.4 2.28-6.12V208c0-2.8-.6-4.8-1.8-6-1.12-1.2-3.2-2.08-6.24-2.64-2.64-.48-3.96-1.28-3.96-2.4 0-.88 1.16-1.32 3.48-1.32 2.24 0 4.8.08 7.68.24l6.36.12 5.76-.12c2.56-.16 5-.24 7.32-.24 2.32 0 3.48.44 3.48 1.32 0 1.12-1.32 1.92-3.96 2.4-3.12.56-5.32 1.48-6.6 2.76-1.28 1.2-1.92 3.16-1.92 5.88v54.24c0 2.72.76 4.76 2.28 6.12 1.6 1.28 4 2.2 7.2 2.76 1.36.24 2.36.52 3 .84.64.32.96.76.96 1.32 0 .88-1.16 1.32-3.48 1.32-2.96 0-5.52-.12-7.68-.36-2.56-.16-4.68-.24-6.36-.24-2 0-4.44.08-7.32.24-2.4.24-5.08.36-8.04.36zM738.606 275.8c-7.52 0-14.6-1.68-21.24-5.04-6.64-3.44-12-8.24-16.08-14.4-4-6.16-6-13.2-6-21.12 0-7.6 2.12-14.48 6.36-20.64 4.24-6.24 9.92-11.16 17.04-14.76 7.12-3.6 14.76-5.4 22.92-5.4 4.16 0 7.52.24 10.08.72 2.64.4 6.4 1.2 11.28 2.4 1.12.32 1.92.8 2.4 1.44.56.64.92 1.52 1.08 2.64.64 6.24 1 10.84 1.08 13.8.08.48-.12.92-.6 1.32-.4.32-.88.48-1.44.48-1.04 0-1.72-.56-2.04-1.68-.88-3.44-1.88-6.16-3-8.16-1.04-2.08-2.52-3.8-4.44-5.16-2-1.28-4.44-2.28-7.32-3-2.8-.72-5.84-1.08-9.12-1.08-6.08 0-11.56 1.6-16.44 4.8-4.88 3.2-8.72 7.44-11.52 12.72-2.8 5.2-4.2 10.76-4.2 16.68 0 6.64 1.4 13.04 4.2 19.2 2.8 6.08 6.68 11.04 11.64 14.88 5.04 3.76 10.76 5.64 17.16 5.64 5.52 0 10.16-1.24 13.92-3.72 3.84-2.56 7.16-6.32 9.96-11.28.24-.48.6-.84 1.08-1.08.48-.32.92-.48 1.32-.48.48 0 .88.16 1.2.48.32.32.48.8.48 1.44 0 .96-.36 2.72-1.08 5.28-.72 2.48-1.44 4.6-2.16 6.36-.64 1.12-1.12 1.84-1.44 2.16-.32.32-1.12.68-2.4 1.08-2.8 1.12-6.24 1.96-10.32 2.52-4.08.64-8.2.96-12.36.96zM448.536 128.56V174h-4.416v-21.248h-26.944V174h-4.48v-45.44h4.48v20.224h26.944V128.56h4.416zM478.25 174.32c-3.2 0-6.101-.64-8.704-1.92a21.863 21.863 0 01-6.72-5.248 24.16 24.16 0 01-4.352-7.36 24.393 24.393 0 01-1.536-8.512c0-3.029.533-5.909 1.6-8.64 1.067-2.773 2.56-5.227 4.48-7.36a21.678 21.678 0 016.848-5.12c2.603-1.28 5.419-1.92 8.448-1.92 3.157 0 6.037.661 8.64 1.984a21.427 21.427 0 016.72 5.312 23.292 23.292 0 014.352 7.424 23.697 23.697 0 011.536 8.384c0 3.029-.533 5.931-1.6 8.704a24.519 24.519 0 01-4.48 7.36 21.392 21.392 0 01-6.784 5.056c-2.603 1.237-5.419 1.856-8.448 1.856zm-16.832-23.04c0 2.475.405 4.843 1.216 7.104a19.923 19.923 0 003.456 6.08 17.19 17.19 0 005.312 4.288c2.091 1.024 4.373 1.536 6.848 1.536 2.603 0 4.928-.533 6.976-1.6a16.623 16.623 0 005.312-4.416 19.853 19.853 0 003.392-6.08 21.354 21.354 0 001.152-6.912 20.88 20.88 0 00-1.216-7.104 19.238 19.238 0 00-3.52-6.08 16.397 16.397 0 00-5.312-4.224c-2.048-1.024-4.309-1.536-6.784-1.536-2.56 0-4.885.533-6.976 1.6a16.796 16.796 0 00-5.312 4.352c-1.451 1.792-2.581 3.819-3.392 6.08a21.354 21.354 0 00-1.152 6.912zM538.639 132.528h-16.192V174h-4.48v-41.472h-16.192v-3.968h36.864v3.968zM575.974 170.032V174h-30.528v-45.44h29.952v3.968h-25.472v16.384h22.208v3.776h-22.208v17.344h26.048zM584.446 174v-45.44h4.48v41.472h26.24V174h-30.72z" fill="#fff"/>
  <path d="M71.182 270.398c3.881.319 7.862.661 11.69 1.333.198 4.155-6.104 2.631-8.815 2.631H41.232c-3.281 0-6.569 0-9.828-.133-5.19-.255-10.474 0-15.658 0H3.636c-.535 0-3.334-.348-3.636 0 1.332-1.519 1.943-2.898 2.636-2.898 14.21-.869 21.227-10.866 26.383-21.918 8.728-18.753 16.293-38.058 24.707-56.991.471-1.049 6.703-2.127 6.982-2.046-5.982 18.053-13.302 35.23-13.674 54.123-.332 15.288 8.711 24.624 24.148 25.899zm180.723 1.043a9.77 9.77 0 00-2.822-.875c-7.518-.498-12.802-4.572-16.438-10.669-3.637-6.097-7.431-12.275-10.073-18.846-18.038-44.891-59.411-148.94-61.098-153.292-10.998-27.853-22.304-55.59-33.575-83.326-.663-1.628-2.043-2.961-3.084-4.433-1.036 1.426-2.438 2.718-3.043 4.306-3.806 9.91-7.565 19.843-10.998 29.886a10.914 10.914 0 00.279 6.885 39061.18 39061.18 0 0051.061 131.844c1.396 3.599 2.729 7.221 4.323 11.44h-.506c.03.363.005.728-.076 1.084a3.345 3.345 0 01-.785 2.236l.465.093c2.078.516 3.352 1.832 4.347 4.636 5.61 15.717 11.714 31.266 17.527 46.914a25.158 25.158 0 01.5 15.937 26.382 26.382 0 01-3.491 7.313c-1.519 2.208-4.12 3.663-6.535 4.724-.884.388-11.003 3.477-15.292 4.01l-1.298 2.898s81.919-.209 92.689-.209c-.093-1.704-.064-1.756-2.077-2.556zM98.287 68.837L54.75 189.756s5.778 1.067 5.923.609c3.143-9.904 38.481-121.291 37.614-121.528zm68.156 115.524l-73.731 1.82 74.907 2.109-1.176-3.929z" fill="#D59530"/>
  <path d="M60.272 191.593l2.351-7.377-5.318-1.547-4.056 10.825 7.023-1.901z" fill="#D59530"/>
</svg>
