<svg xmlns="http://www.w3.org/2000/svg" fill="#fff" viewBox="0 0 479.316 479.316"><path d="M471.816 368.906h-27v-94.5h27a7.5 7.5 0 000-15h-34.5a7.5 7.5 0 00-7.5 7.5v34.504H311.631v-4.557l18.664-4.291a7.499 7.499 0 005.628-8.99l-6.05-26.314 36.544-8.403a7.496 7.496 0 005.628-8.99l-14.117-61.396 4.385-1.008a7.5 7.5 0 005.628-8.99l-15.461-67.242a7.501 7.501 0 00-8.99-5.629L5.819 173.244a7.496 7.496 0 00-5.628 8.99c4.785 20.809 17.691 37.675 34.597 48.04l-11.468 2.637a7.499 7.499 0 00-5.628 8.99l8.481 36.887a7.496 7.496 0 008.99 5.628l21.258-4.888 7.187 31.258a7.503 7.503 0 008.99 5.629l135.941-31.258 6.05 26.314a7.496 7.496 0 008.99 5.628l13.052-3.001v38.299a7.5 7.5 0 007.5 7.5h60a7.5 7.5 0 007.5-7.5v-8.987h118.185v32.996a7.5 7.5 0 007.5 7.5h34.5a7.5 7.5 0 000-15zM16.928 186.081l322.614-74.18 12.1 52.624-263.12 60.5c-16.009 3.681-32.493.907-46.415-7.81-11.781-7.376-20.534-18.26-25.179-31.134zM53.06 264.91l-13.949 3.208-5.12-22.269 13.949-3.208 3.291 14.312 1.829 7.957zm13.996-6.067l-4.183-18.194c3.891.616 7.853.948 11.862.948 5.658 0 11.406-.634 17.149-1.955l251.426-57.811 12.437 54.087-279.2 64.198-9.491-41.273zm156.102 22.953l92.097-21.176 4.37 19.005-92.097 21.176-4.37-19.005zm28.473 63.102V310.65l45-10.347v44.595h-45zm60-16.488v-12h118.185v12H311.631z"/></svg>