<svg xmlns="http://www.w3.org/2000/svg" width="24" viewBox="0 0 512.002 512.002" fill="#c7956f">
  <path d="M507.994 154.841c-5.636-6.073-15.131-6.423-21.203-.786l-30.344 28.176c-.49-.264-.967-.515-1.415-.739-4.174-2.085-8.987-2.643-13.376.254l.601-1.41a4.431 4.431 0 00-2.341-5.814 4.424 4.424 0 00-5.299 1.457c.154-1.378.241-2.776.241-4.195 0-20.619-16.715-37.336-37.335-37.336-20.619 0-37.334 16.715-37.334 37.336 0 1.419.087 2.818.241 4.195a4.424 4.424 0 00-5.299-1.457 4.433 4.433 0 00-2.341 5.814l.601 1.41c-4.389-2.898-9.203-2.341-13.377-.255-3.169 1.583-7.454 4.117-12.022 8.779l-51.605-34.279c-6.902-4.585-16.214-2.705-20.799 4.195-4.584 6.902-2.706 16.214 4.196 20.799 107.006 71.081 101.031 67.135 101.77 67.563-3.61 29.509.814 4.268-23.556 130.086a8.338 8.338 0 001.753 6.888 8.341 8.341 0 006.429 3.041h7.413l-18.213 92.835c-2.177 11.093 6.306 21.473 17.686 21.473 8.432 0 15.963-5.954 17.647-14.541l19.574-99.768h18.021l14.755 98.956c1.332 8.934 9.015 15.351 17.784 15.351 11.063 0 19.446-9.82 17.829-20.661l-13.963-93.647h4.152a8.341 8.341 0 008.182-9.93c-24.367-125.807-19.818-99.528-24.001-133.725l38.201-35.471c1.553.324 3.112.716 4.671 1.227a2.335 2.335 0 002.829-3.241 82.929 82.929 0 00-1.726-3.346l30.19-28.034c6.068-5.635 6.421-15.128.783-21.2zm-92.834 65.727h-41.561l-19.827-13.171c.119-.051.259-.088.371-.144 3.393-1.695 5.708-4.676 6.68-8.054l.645 1.516a4.433 4.433 0 005.813 2.34 4.433 4.433 0 002.341-5.814l-.552-1.296c6.848 8.056 17.049 13.173 28.451 13.173 11.402 0 21.604-5.117 28.451-13.173l-.552 1.296a4.431 4.431 0 008.154 3.474l.645-1.516c.265.923.624 1.816 1.087 2.66l-20.146 18.709z"/>
  <circle cx="119.093" cy="162.94" r="37.429"/>
  <path d="M240.872 125.326c4.985-6.704 3.593-16.179-3.111-21.164-6.703-4.985-16.179-3.594-21.164 3.111l-78.111 105.022H98.114l-71.301-86.773c-5.303-6.452-14.835-7.387-21.29-2.084-6.454 5.303-7.387 14.836-2.084 21.29l75.426 91.794V336.96l-43.25 142.483c-2.912 9.593 2.504 19.729 12.096 22.641 9.614 2.916 19.736-2.522 22.641-12.096l40.295-132.737h14.059l13.083 129.292c1.009 9.973 9.912 17.241 19.886 16.231 9.973-1.009 17.241-9.913 16.231-19.886-15.757-155.717-14.662-145.287-14.918-146.642V235.422l81.884-110.096z"/>
  <circle cx="295.194" cy="51.785" r="42.654"/>
</svg>
