<svg width="28" height="28" xmlns="http://www.w3.org/2000/svg">
  <path d="M17.25 18a2.25 2.25 0 012.25 2.25v1.502l-.008.108c-.31 2.127-2.22 3.149-5.425 3.149-3.193 0-5.134-1.01-5.553-3.112L8.5 21.75v-1.5A2.25 2.25 0 0110.75 18h6.5zm0 1.5h-6.5a.75.75 0 00-.75.75v1.42c.28 1.2 1.55 1.839 4.067 1.839 2.516 0 3.73-.631 3.933-1.816V20.25a.75.75 0 00-.75-.75zm.994-7.501L23.75 12A2.25 2.25 0 0126 14.25v1.502l-.008.108c-.31 2.127-2.22 3.149-5.425 3.149l-.315-.003a3.255 3.255 0 00-1.519-1.649c.515.101 1.125.152 1.834.152 2.516 0 3.73-.631 3.933-1.816V14.25a.75.75 0 00-.75-.75H18.5c0-.526-.09-1.032-.256-1.501zM4.25 12l5.506-.001a4.481 4.481 0 00-.249 1.24L9.5 13.5H4.25a.75.75 0 00-.75.75v1.42c.28 1.2 1.55 1.839 4.067 1.839.622 0 1.164-.039 1.632-.115a3.257 3.257 0 00-1.453 1.613l-.18.002c-3.192 0-5.133-1.01-5.552-3.112L2 15.75v-1.5A2.25 2.25 0 014.25 12zM14 10a3.5 3.5 0 110 7 3.5 3.5 0 010-7zm0 1.5a2 2 0 100 4 2 2 0 000-4zM20.5 4a3.5 3.5 0 110 7 3.5 3.5 0 010-7zm-13 0a3.5 3.5 0 110 7 3.5 3.5 0 010-7zm13 1.5a2 2 0 100 4 2 2 0 000-4zm-13 0a2 2 0 100 4 2 2 0 000-4z" fill="#c7956f" fill-rule="nonzero"/>
</svg>
