<svg xmlns="http://www.w3.org/2000/svg" viewBox="0 0 511.999 511.999" fill="#c7956f">
  <path d="M139.499 378.956c-2.332-2.33-5.985-2.33-8.443-.126l-15.816 14.05c-1.761 1.515-2.52 3.403-2.142 5.672.569 3.34 1.072 4.979 2.458 6.364 1.321 1.325 4.096 1.826 7.813 5.544 4.602 4.6 5.608 10.018 1.829 13.798l-.127.126c-3.906 3.906-9.137 3.088-13.23-1.009-3.088-3.087-4.789-6.552-5.543-11.214-.193-1.323-.63-2.396-1.765-3.529-2.522-2.521-6.745-2.457-9.261.064-1.638 1.637-2.082 3.717-1.767 5.672 1.007 6.047 3.59 11.907 9.705 18.019 9.699 9.704 22.367 10.521 31.691 1.198l.127-.127c9.955-9.954 7.372-20.855-1.326-29.549-2.454-2.458-4.346-3.718-6.554-5.041l8.131-7.12 14.871 14.87c2.332 2.332 6.173 2.395 8.506.064 2.333-2.332 2.333-6.239 0-8.569l-19.157-19.157zM118.579 356.776l-.125-.126c-1.323-1.323-3.025-2.395-5.355-3.718l-8.065-4.41c-2.52-1.387-5.418-1.009-7.372.945-2.27 2.267-2.204 6.111.065 8.38.503.503 1.321 1.072 1.953 1.45l4.283 2.52-30.492 30.493a6.766 6.766 0 00-.003 9.579 6.77 6.77 0 009.577-.001l35.536-35.535a6.77 6.77 0 00-.002-9.577z"/>
  <path d="M499.324 82.414l.817-.817c6.984-6.978 12.077-19.684 11.851-29.551l-.652-28.906c-.271-11.961-10.223-21.913-22.185-22.184l-28.9-.652c-.21-.004-.425-.007-.64-.007-9.72 0-22.152 5.096-28.917 11.856L283.795 159.059a102.124 102.124 0 00-28.582-4.063c-27.267 0-52.902 10.618-72.184 29.898-37.821 37.827-39.673 98.177-5.611 138.242l-9.45 9.451-47.548-47.547a8.301 8.301 0 00-11.744 0L2.432 391.283a8.302 8.302 0 000 11.742L108.673 509.27a8.301 8.301 0 0011.744 0l106.246-106.245a8.302 8.302 0 000-11.742L179.71 344.33l9.446-9.447c18.433 15.701 41.582 24.282 66.061 24.282 27.268 0 52.904-10.618 72.187-29.9 13.825-13.827 23.339-31.186 27.514-50.204a102.365 102.365 0 00-1.682-50.56l4.389-4.389 8.831 2.213c5.873 1.471 11.572-.266 14.822-4.431 2.647-3.391 3.448-7.88 2.255-12.646l-.1-.394 6.394 1.601c1.749.438 3.479.661 5.144.661 5.089 0 9.478-2.034 12.36-5.726 3.092-3.961 4.006-9.292 2.574-15.01l-3.713-14.832 13.666-13.666 8.828 2.212c5.878 1.471 11.578-.267 14.83-4.435 2.516-3.228 3.361-7.451 2.409-11.95 5.625 1.189 11.009-.588 14.132-4.591 2.518-3.227 3.363-7.45 2.411-11.952 5.631 1.187 11.01-.588 14.134-4.59 2.646-3.391 3.445-7.882 2.252-12.644l-.648-2.586 3.474.87c1.749.437 3.481.66 5.144.66h.001c5.091 0 9.48-2.033 12.362-5.725 3.092-3.96 4.006-9.292 2.573-15.016l-2.436-9.721zM209.048 397.152l-94.503 94.502-94.5-94.501 94.501-94.502 41.677 41.677-.803.803a8.301 8.301 0 00.001 11.742 8.273 8.273 0 005.871 2.432c2.125 0 4.25-.81 5.872-2.432l.803-.803 41.081 41.082zm279.353-327.3l-4.146 4.146a8.304 8.304 0 00-2.182 7.89l3.558 14.195-14.198-3.556a8.306 8.306 0 00-7.888 2.182l-2.066 2.066a8.302 8.302 0 00-1.798 9.055c.043.105.072.186.084.234l1.955 7.806-7.82-1.96a2.31 2.31 0 01-.208-.064 8.303 8.303 0 00-10.524 10.584c.018.048.033.099.053.177l1.954 7.806-7.829-1.962c-.073-.019-.142-.042-.209-.064-3.012-1.023-6.319-.163-8.554 2.097-2.234 2.261-2.963 5.671-1.908 8.669l1.955 7.806-7.81-1.957a1.34 1.34 0 01-.188-.069 8.307 8.307 0 00-9.094 1.781l-20.414 20.415a8.303 8.303 0 00-2.183 7.887l4.833 19.307-19.306-4.836a8.3 8.3 0 00-7.885 2.18l-.425.424a8.299 8.299 0 00-1.779 9.109c.029.071.048.125.063.185l1.956 7.804-7.791-1.952a1.484 1.484 0 01-.225-.08 8.298 8.298 0 00-9.078 1.788L337.92 220.33a8.302 8.302 0 00-1.971 8.598c10.705 30.788 2.741 65.561-20.287 88.591-16.146 16.144-37.612 25.035-60.445 25.035-20.042 0-39.028-6.854-54.289-19.448l10.606-10.607a22.51 22.51 0 008.972 1.862c6.028 0 11.697-2.348 15.966-6.613 8.8-8.802 8.8-23.123-.001-31.928-4.266-4.263-9.934-6.612-15.963-6.612a22.427 22.427 0 00-15.962 6.612 22.425 22.425 0 00-6.616 15.966c0 3.139.65 6.174 1.862 8.971l-10.598 10.599c-27.619-33.544-25.764-83.377 5.58-114.725 16.145-16.143 37.61-25.034 60.442-25.034a85.478 85.478 0 0128.152 4.746 8.306 8.306 0 008.6-1.972L442.443 23.896c3.663-3.661 11.849-6.994 17.176-6.994l29.165.655c3.104.07 5.888 2.855 5.958 5.957l.652 28.908c.119 5.345-3.212 13.651-6.993 17.43zM214.536 291.791c0-1.593.621-3.092 1.751-4.221a5.927 5.927 0 014.219-1.748c1.595 0 3.094.622 4.221 1.747 2.327 2.328 2.328 6.116.002 8.441a5.934 5.934 0 01-4.224 1.75 5.93 5.93 0 01-4.221-1.75 5.927 5.927 0 01-1.748-4.219z"/>
  <path d="M327.428 196.617l-11.783-11.703 147.089-148.09 11.783 11.703z"/>
</svg>
