<svg width="30" viewBox="0 0 38 35" fill="#fff" xmlns="http://www.w3.org/2000/svg">
<path d="M20.454 0.627003C19.698 -0.173997 18.302 -0.173997 17.546 0.627003L0.545998 18.627C-0.212002 19.43 -0.176001 20.696 0.626998 21.454C1.43 22.212 2.696 22.176 3.454 21.373L19 4.913L34.546 21.373C34.939 21.79 35.469 22 36 22C36.493 22 36.986 21.819 37.373 21.454C38.176 20.696 38.212 19.43 37.454 18.627L20.454 0.627003Z"/>
<path d="M20.454 13.627C19.698 12.826 18.302 12.826 17.546 13.627L0.545998 31.627C-0.212002 32.43 -0.176001 33.696 0.626998 34.454C1.43 35.212 2.696 35.176 3.454 34.373L19 17.913L34.546 34.373C34.939 34.79 35.469 35 36 35C36.493 35 36.986 34.819 37.373 34.454C38.176 33.696 38.212 32.43 37.454 31.627L20.454 13.627Z"/>
</svg>
