<svg xmlns="http://www.w3.org/2000/svg" fill="#fff" viewBox="0 0 282.732 282.732"><path d="M178.125 263.119v-9.375H98.438v-4.688h79.688v-28.125c0-25.847-21.028-46.875-46.875-46.875h-23.438v-4.688c0-7.753-6.309-14.063-14.063-14.063s-14.063 6.309-14.063 14.063v4.688H56.25c-25.847 0-46.875 21.028-46.875 46.875v28.125h79.688v4.688H9.375v9.375c0 5.17-4.205 9.375-9.375 9.375v9.375h187.5v-9.375c-5.17 0-9.375-4.205-9.375-9.375zm-84.374-98.438a4.69 4.69 0 014.688 4.688v4.688h-9.375v-4.688h-.001a4.69 4.69 0 014.688-4.688zm-75 75v-18.75h-.001c0-20.677 16.823-37.5 37.5-37.5h75.001c20.677 0 37.5 16.823 37.5 37.5v18.75h-150zm-2.518 32.813a18.607 18.607 0 002.517-9.375h150c0 3.413.914 6.614 2.517 9.375H16.233zM267.189 46.074h-.001a15.443 15.443 0 01-6.895 12.881 15.381 15.381 0 01-8.587 2.602H206.25l-49.786 13.406a18.533 18.533 0 01-4.903.656 6.255 6.255 0 01-6.248-6.248v-1.378a6.258 6.258 0 013.216-5.466l36.563-20.311-4.552-8.194-7.378 4.097h-21.764c-4.542 0-9.028.727-13.341 2.166L103.74 51.722a8.918 8.918 0 01-2.827.459h-2.92c-4.927 0-8.93-4.003-8.93-8.93a8.932 8.932 0 016.113-8.48l41.156-13.72a32.834 32.834 0 0110.378-1.683h107.175l28.847-9.619-2.967-8.887-27.398 9.131H146.709c-4.542 0-9.028.727-13.341 2.166l-41.16 13.725a18.277 18.277 0 00-12.52 17.367c0 10.092 8.213 18.305 18.305 18.305h2.92c1.969 0 3.919-.314 5.789-.942l34.313-11.433a32.778 32.778 0 0110.383-1.687h4.889l-12.314 6.839a15.638 15.638 0 00-8.034 13.659v1.378c0 8.616 7.008 15.623 15.623 15.623 2.503 0 4.987-.333 7.373-.989l47.944-13.073h44.827a24.74 24.74 0 0013.786-4.177 24.782 24.782 0 0011.03-19.261h4.73v-9.375h-14.063v7.956zM89.063 103.745h9.375v28.125h-9.375zM50.663 119.649l19.883 19.883-6.629 6.63-19.883-19.884zM28.125 155.306H56.25v9.375H28.125zM131.25 155.306h28.125v9.375H131.25zM123.585 146.167l-6.63-6.629 19.885-19.883 6.629 6.629z"/></svg>