<svg xmlns="http://www.w3.org/2000/svg" viewBox="0 0 512 512">
  <g fill="#c7956f">
    <path d="M471.971 424.301h-32.022V61.537C439.949 27.606 412.344 0 378.412 0H133.588C99.656 0 72.051 27.606 72.051 61.537v362.765H40.029v47.67h54.4c-3.947 4.255-6.366 9.946-6.366 16.193 0 13.143 10.693 23.835 23.835 23.835s23.835-10.693 23.835-23.835c0-6.248-2.419-11.938-6.366-16.193h253.268c-3.947 4.255-6.368 9.946-6.368 16.193 0 13.143 10.693 23.835 23.835 23.835s23.835-10.693 23.835-23.835c0-6.248-2.419-11.938-6.368-16.193h54.4v-47.671zM87.699 61.537c0-25.303 20.586-45.889 45.889-45.889h244.823c25.303 0 45.889 20.586 45.889 45.889v362.765H263.824v-112.08h-159.75v112.08H87.699V61.537zm160.477 266.332v96.432H119.722v-96.432h128.454zM111.898 496.352c-4.515 0-8.188-3.673-8.188-8.188 0-4.515 3.673-8.188 8.188-8.188 4.515 0 8.188 3.673 8.188 8.188 0 4.515-3.674 8.188-8.188 8.188zm288.204 0c-4.515 0-8.188-3.673-8.188-8.188 0-4.515 3.673-8.188 8.188-8.188 4.515 0 8.188 3.673 8.188 8.188 0 4.515-3.672 8.188-8.188 8.188zm56.222-40.028H55.676v-16.375h400.647l.001 16.375z"/>
    <path d="M167.756 287.841h32.386v16.193h15.648v-31.841h-63.682v31.841h15.648zM136.092 336.058h15.648v80.053h-15.648zM216.156 336.058h15.648v80.053h-15.648zM407.926 115.901c0-31.014-23.709-56.59-53.954-59.567V23.835h-15.648v33.009c-28.389 4.667-50.12 29.366-50.12 59.056v292.025h119.722V115.901zm-15.648 76.235h-32.386v-16.375h32.386v16.375zm-32.022 15.647v24.381h-24.381v-40.393h8.369v16.012h16.012zm32.022-47.669h-48.034v16.012h-24.017v71.688h55.676v-40.029h16.375V392.28h-88.427V115.901c0-24.379 19.834-44.213 44.213-44.213s44.214 19.834 44.214 44.213v44.213z"/>
  </g>
</svg>