<svg xmlns="http://www.w3.org/2000/svg" fill="#fff" viewBox="0 0 465 465"><path d="M405.881 116.193h-172c-4.142 0-7.5 3.357-7.5 7.5s3.358 7.5 7.5 7.5h172c24.327 0 44.119 19.792 44.119 44.119v114.375c0 24.327-19.792 44.119-44.119 44.119H284.119c-24.327 0-44.119-19.792-44.119-44.119V175.313c0-32.599-26.521-59.119-59.119-59.119H59.119C26.521 116.193 0 142.714 0 175.313v114.375c0 32.599 26.521 59.119 59.119 59.119h172c4.143 0 7.5-3.357 7.5-7.5s-3.357-7.5-7.5-7.5h-172C34.792 333.807 15 314.015 15 289.688V175.313c0-24.327 19.792-44.119 44.119-44.119h121.762c24.327 0 44.119 19.792 44.119 44.119v114.375c0 32.599 26.521 59.119 59.119 59.119h121.762c32.599 0 59.119-26.521 59.119-59.119V175.313c0-32.599-26.521-59.12-59.119-59.12z"/><path d="M367.159 191.567a7.5 7.5 0 007.499-7.501 7.5 7.5 0 00-7.501-7.499l-74.207.011a7.5 7.5 0 00-7.499 7.5v107.888c0 4.143 3.357 7.5 7.5 7.5s7.5-3.357 7.5-7.5v-46.449l56.712-.036a7.5 7.5 0 007.495-7.505 7.5 7.5 0 00-7.5-7.495h-.005l-56.702.036v-38.939l66.708-.011zM396.633 203.841a7.499 7.499 0 00-7.5 7.5v80.625c0 4.143 3.357 7.5 7.5 7.5s7.5-3.357 7.5-7.5v-80.625a7.5 7.5 0 00-7.5-7.5zM396.633 176.567c-4.425 0-8.025 3.601-8.025 8.025s3.601 8.025 8.025 8.025 8.025-3.601 8.025-8.025-3.6-8.025-8.025-8.025zM171.902 203.841a7.5 7.5 0 00-7.5 7.5v80.625c0 4.143 3.358 7.5 7.5 7.5s7.5-3.357 7.5-7.5v-80.625a7.5 7.5 0 00-7.5-7.5zM171.902 176.567c-4.425 0-8.025 3.601-8.025 8.025s3.6 8.025 8.025 8.025c4.425 0 8.025-3.601 8.025-8.025s-3.6-8.025-8.025-8.025zM68.22 176.871a7.5 7.5 0 00-7.5 7.5v107.594a7.5 7.5 0 0013.678 4.253l30.876-44.851 30.981 44.859a7.501 7.501 0 0013.672-4.262V184.067c0-4.143-3.358-7.5-7.5-7.5s-7.5 3.357-7.5 7.5v83.84l-23.491-34.014a7.5 7.5 0 00-6.171-3.238h-.005a7.5 7.5 0 00-6.172 3.247L75.72 267.845v-83.474a7.5 7.5 0 00-7.5-7.5z"/></svg>